<?xml version="1.0" encoding="utf-8"?>
<!-- Generator: Adobe Illustrator 28.2.0, SVG Export Plug-In . SVG Version: 6.00 Build 0)  -->
<svg version="1.1" id="Layer_1" xmlns="http://www.w3.org/2000/svg" xmlns:xlink="http://www.w3.org/1999/xlink" x="0px" y="0px"
	 viewBox="0 0 735 369" style="enable-background:new 0 0 735 369;" xml:space="preserve">
<style type="text/css">
	.st0{fill:#9CFCF0;}
	.st1{fill:#009F00;}
	.st2{fill:none;stroke:#000000;}
	.st3{fill-rule:evenodd;clip-rule:evenodd;}
	.st4{fill:#F0D0B0;}
	.st5{fill:#E75F13;}
	.st6{fill:#41D83D;}
	.st7{fill:#FFFFFF;}
	.st8{fill-rule:evenodd;clip-rule:evenodd;fill:#93FCEE;}
	.st9{fill:#93FCEE;}
	.st10{fill:#049CD8;stroke:#000000;stroke-width:5;stroke-miterlimit:10;}
	.st11{fill:#FBD000;stroke:#000000;stroke-width:5;stroke-miterlimit:10;}
	.st12{fill:#E52521;stroke:#000000;stroke-width:5;stroke-miterlimit:10;}
	.st13{fill:#43B047;stroke:#000000;stroke-width:5;stroke-miterlimit:10;}
	.st14{fill:#D42000;}
	.st15{fill:#FCB5A8;}
	.st16{fill:#FC8E2E;}
	.st17{fill-rule:evenodd;clip-rule:evenodd;fill:#41D83D;}
	.st18{fill-rule:evenodd;clip-rule:evenodd;fill:#009F00;}
	.st19{fill-rule:evenodd;clip-rule:evenodd;fill:#FC8E2E;}
</style>
<rect id="Sky" class="st0" width="735" height="368"/>
<g id="Large_Hill">
	<path class="st1" d="M672.9,186.6h-11.4v1.4h-4.3v1.4h-2.9v1.4h-1.4v1.4h-1.4v2.9h-1.4v2.9h-1.4v4.3h-1.4v5.7h-1.4v47.1h-11.4v2.9
		h-2.9v1.4h-1.4v1.4h-1.4v2.9h-1.4v2.9h-1.4v4.3h-1.4v7.1h-8.6v1.4h-4.3v1.4h-2.9v1.4h-1.4v1.4h-1.4v2.9h-1.4v2.9H603v4.3h-1.4v5
		h-0.7v1.4h-1.4v24.3h-4.3v-7.1h-1.4v-4.3h-1.4V310h-1.4v-2.9h-1.4v-1.4H588v-1.4h-2.9v-1.4h-4.3v-1.4h-11.4v1.4h-4.3v1.4h-2.9v1.4
		h-1.4v1.4h-1.4v2.9H558v2.9h-1.4v4.3h-1.4v5.7h-1.4v24.3h-7.1v1.4h-4.3v1.4h-2.9v1.4H538v1.4h-1.4v2.9h-1.4v2.9h-1.4v4.3h-1.4v4.3
		h69.2v0.7h132.7V345h-1.4v-5.7h-1.4V335H730v-2.9h-1.4v-2.9h-1.4v-1.4h-1.4v-1.4h-2.9V325h-4.3v-1.4h-7.1v-92.8H710v-5.7h-1.4v-4.3
		h-1.4V218h-1.4v-2.9h-1.4v-1.4h-1.4v-1.4H700v-1.4h-4.3v-1.4h-8.6v-7.1h-1.4V198h-1.4v-2.9h-1.4v-2.9h-1.4v-1.4H680v-1.4h-2.9V188
		h-3.6v-0.7h-0.7V186.6z"/>
	<rect x="638.7" y="262.2" width="2.9" height="2.9"/>
	<rect x="647.2" y="262.2" width="2.9" height="2.9"/>
	<rect x="615.8" y="285" width="2.9" height="2.9"/>
	<rect x="624.4" y="285" width="2.9" height="2.9"/>
	<rect x="593" y="329.3" width="2.9" height="2.9"/>
	<rect x="601.5" y="329.3" width="2.9" height="2.9"/>
	<rect x="568.7" y="307.9" width="2.9" height="2.9"/>
	<rect x="577.3" y="307.9" width="2.9" height="2.9"/>
	<rect x="545.9" y="353.6" width="2.9" height="2.9"/>
	<rect x="554.4" y="353.6" width="2.9" height="2.9"/>
	<rect x="661.5" y="193.7" width="2.9" height="2.9"/>
	<rect x="670.1" y="193.7" width="2.9" height="2.9"/>
	<rect x="684.3" y="216.5" width="2.9" height="2.9"/>
	<rect x="692.9" y="216.5" width="2.9" height="2.9"/>
	<rect x="707.2" y="330.7" width="2.9" height="2.9"/>
	<rect x="715.7" y="330.7" width="2.9" height="2.9"/>
	<path class="st2" d="M600.8,298.6v-5 M602.3,293.6v-4.3 M603.7,289.3v-2.9 M605.1,286.5v-2.9 M606.5,283.6v-2.1 M608,282.2v-1.4
		 M608.7,280h2.9 M611.5,278.6h4.3 M615.8,277.2h7.9 M627.2,277.2h-3.6 M623.7,277.2v-6.4 M625.1,270.8v-4.3 M626.5,266.5v-2.9
		 M627.9,263.6v-2.9 M629.4,260.8v-1.4 M630.8,259.4v-1.4 M631.5,257.2h2.9 M634.4,255.8h4.3 M638.7,254.4h6.4 M650.1,254.4h-5
		 M645.1,254.4V208 M646.5,208v-5.7 M647.9,202.3V198 M649.4,198v-2.9 M650.8,195.1v-2.9 M652.2,192.3v-1.4 M653.6,190.8v-1.4
		 M654.4,188.7h2.9 M657.2,187.3h4.3 M661.5,185.8h11.4 M672.9,187.3h4.3 M677.2,188.7h2.9 M680,190.1h1.4 M681.5,191.6h1.4
		 M683.6,192.3v2.9 M685,195.1v2.9 M686.5,198v4.3 M687.9,202.3v6.4h-3.6h11.4 M695.7,210.1h4.3 M700,211.5h2.9 M703.6,212.2v1.4
		 M705,213.7v1.4 M706.5,215.1v2.9 M707.9,218v2.9 M709.3,220.8v4.3 M710.7,225.1v5.7 M712.2,230.8v92.1h-5h11.4 M718.6,324.3h4.3
		 M722.9,325.7h2.9 M726.4,326.4v1.4 M727.9,327.9v1.4 M729.3,329.3v2.9 M730.7,332.1v2.9 M732.1,335v4.3 M733.6,339.3v5.7 M735,345
		v22.8H599.4H573 M707.2,324.3h-4.3 M702.9,325.7H700 M700,327.2h-1.4 M698.6,328.6h-1.4 M696.5,329.3v2.9 M695,332.1v2.9
		 M693.6,335v4.3 M692.2,339.3v5.7 M627.2,278.6h4.3 M631.5,280h2.9 M635.1,280.8v1.4 M636.5,282.2v1.4 M637.9,283.6v2.9
		 M639.4,286.5v2.9 M640.8,289.3v4.3 M642.2,293.6v5.7 M650.1,255.8h4.3 M654.4,257.2h2.9 M657.2,258.6h1.4 M658.6,260.1h1.4
		 M660.8,260.8v2.9 M662.2,263.6v2.9 M663.6,266.5v4.3 M665.1,270.8v5.7 M684.3,210.1H680 M680,211.5h-2.9 M676.5,212.2v1.4
		 M675.1,213.7v1.4 M673.6,215.1v2.9 M672.2,218v2.9 M670.8,220.8v4.3 M669.3,225.1v5.7 M533,358.6v4.3h-1.4v5H573 M534.5,358.6
		v-2.9 M535.9,355.7v-2.9 M537.3,352.8v-1.4 M538.7,351.4V350 M539.5,349.3h2.9 M542.3,347.8h4.3 M546.6,346.4h6.4 M558,346.4h-5
		 M553,346.4v-23.6 M554.4,322.9v-5.7 M555.9,317.2v-4.3 M557.3,312.9V310 M558.7,310v-2.9 M560.1,307.2v-1.4 M561.6,305.7v-1.4
		 M562.3,303.6h2.9 M565.1,302.2h4.3 M569.4,300.7h11.4 M580.8,302.2h4.3 M585.1,303.6h2.9 M588.7,304.3v1.4 M590.1,305.7v1.4
		 M591.5,307.2v2.9 M593,310v2.9 M594.4,312.9v4.3 M595.8,317.2v6.4 M593,323.6h5.7 M603.7,323.6h-5 M598.7,323.6V300 M603.7,325
		h4.3 M608,326.4h2.9 M610.8,327.9h1.4 M612.2,329.3h1.4 M614.4,330v2.9 M615.8,332.9v2.9 M617.2,335.7v4.3 M618.7,340v5.7
		 M592.3,325H588 M588,326.4h-2.9 M584.4,327.2v1.4 M583,328.6v1.4 M581.6,330v2.9 M580.1,332.9v2.9 M578.7,335.7v4.3 M577.3,340
		v5.7 M558,347.8h4.3 M562.3,349.3h2.9 M565.9,350v1.4 M567.3,351.4v1.4 M568.7,352.8v2.9 M570.1,355.7v2.9 M571.6,358.6v4.3
		 M573,362.8v5 M600.1,298.6v1.4"/>
</g>
<g id="Large_Hill_00000032648711159299742930000001663815130066514585_">
	<path class="st1" d="M48,231.5h8.6v1.1h3.2v1.1H62v1.1H63v1.1h1.1v2.1h1.1v2.1h1.1v3.2h1.1v4.3h1.1V283H77v2.1h2.1v1.1h1.1v1.1h1.1
		v2.1h1.1v2.1h1.1v3.2h1.1v5.4h6.4v1.1h3.2v1.1h2.1v1.1h1.1v1.1h1.1v2.1h1.1v2.1h1.1v3.2h1.1v3.8h0.5v1.1h1.1v18.2h3.2v-5.4h1.1
		v-3.2h1.1v-2.1h1.1v-2.1h1.1v-1.1h1.1v-1.1h2.1V319h3.2v-1.1h8.6v1.1h3.2v1.1h2.1v1.1h1.1v1.1h1.1v2.1h1.1v2.1h1.1v3.2h1.1v4.3h1.1
		v18.2h5.4v1.1h3.2v1.1h2.1v1.1h1.1v1.1h1.1v2.1h1.1v2.1h1.1v3.2h1.1v3.2h-52v0.5H1.9v-17.2h1.1v-4.3H4v-3.2h1.1V341h1.1v-2.1h1.1
		v-1.1h1.1v-1.1h2.1v-1.1h3.2v-1.1H19v-69.8h1.1v-4.3h1.1v-3.2h1.1v-2.1h1.1V253h1.1v-1.1h1.1v-1.1h2.1v-1.1h3.2v-1.1h6.4v-5.4h1.1
		v-3.2h1.1V238h1.1v-2.1h1.1v-1.1h1.1v-1.1h2.1v-1.1h2.7v-0.5H48V231.5z"/>
	<rect x="71.6" y="288.4" width="2.1" height="2.1"/>
	<rect x="65.2" y="288.4" width="2.1" height="2.1"/>
	<rect x="88.8" y="305.6" width="2.1" height="2.1"/>
	<rect x="82.4" y="305.6" width="2.1" height="2.1"/>
	<rect x="106" y="338.9" width="2.1" height="2.1"/>
	<rect x="99.5" y="338.9" width="2.1" height="2.1"/>
	<rect x="124.2" y="322.8" width="2.1" height="2.1"/>
	<rect x="117.8" y="322.8" width="2.1" height="2.1"/>
	<rect x="141.4" y="357.1" width="2.1" height="2.1"/>
	<rect x="134.9" y="357.1" width="2.1" height="2.1"/>
	<rect x="54.5" y="236.9" width="2.1" height="2.1"/>
	<rect x="48" y="236.9" width="2.1" height="2.1"/>
	<rect x="37.3" y="254.1" width="2.1" height="2.1"/>
	<rect x="30.8" y="254.1" width="2.1" height="2.1"/>
	<rect x="20.1" y="339.9" width="2.1" height="2.1"/>
	<rect x="13.7" y="339.9" width="2.1" height="2.1"/>
	<path class="st2" d="M102.2,315.8V312 M101.1,312v-3.2 M100.1,308.8v-2.1 M99,306.7v-2.1 M97.9,304.5v-1.6 M96.8,303.4v-1.1
		 M96.3,301.8h-2.1 M94.2,300.8h-3.2 M90.9,299.7H85 M82.4,299.7H85 M85,299.7v-4.8 M84,294.9v-3.2 M82.9,291.6v-2.1 M81.8,289.5
		v-2.1 M80.8,287.3v-1.1 M79.7,286.3v-1.1 M79.1,284.7H77 M77,283.6h-3.2 M73.8,282.5h-4.8 M65.2,282.5h3.8 M68.9,282.5v-34.9
		 M67.9,247.6v-4.3 M66.8,243.3v-3.2 M65.7,240.1V238 M64.7,238v-2.1 M63.6,235.8v-1.1 M62.5,234.8v-1.1 M62,233.1h-2.1 M59.8,232.1
		h-3.2 M56.6,231H48 M48,232.1h-3.2 M44.8,233.1h-2.1 M42.7,234.2h-1.1 M41.6,235.3h-1.1 M40,235.8v2.1 M38.9,238v2.1 M37.8,240.1
		v3.2 M36.8,243.3v4.8h2.7h-8.6 M30.8,249.2h-3.2 M27.6,250.3h-2.1 M24.9,250.9v1.1 M23.9,251.9v1.1 M22.8,253v2.1 M21.7,255.1v2.1
		 M20.7,257.3v3.2 M19.6,260.5v4.3 M18.5,264.8V334h3.8h-8.6 M13.7,335.1h-3.2 M10.5,336.2H8.3 M7.8,336.7v1.1 M6.7,337.8v1.1
		 M5.6,338.9v2.1 M4.6,341v2.1 M3.5,343.1v3.2 M2.4,346.4v4.3 M1.3,350.7v17.2h102h19.9 M22.3,335.1h3.2 M25.5,336.2h2.1
		 M27.6,337.2h1.1 M28.7,338.3h1.1 M30.3,338.9v2.1 M31.4,341v2.1 M32.5,343.1v3.2 M33.5,346.4v4.3 M82.4,300.8h-3.2 M79.1,301.8H77
		 M76.5,302.4v1.1 M75.4,303.4v1.1 M74.3,304.5v2.1 M73.2,306.7v2.1 M72.2,308.8v3.2 M71.1,312v4.3 M65.2,283.6H62 M62,284.7h-2.1
		 M59.8,285.7h-1.1 M58.8,286.8h-1.1 M57.1,287.3v2.1 M56.1,289.5v2.1 M55,291.6v3.2 M53.9,294.9v4.3 M39.4,249.2h3.2 M42.7,250.3
		h2.1 M45.3,250.9v1.1 M46.4,251.9v1.1 M47.5,253v2.1 M48.6,255.1v2.1 M49.6,257.3v3.2 M50.7,260.5v4.3 M153.2,360.9v3.2h1.1v3.8
		h-31.1 M152.1,360.9v-2.1 M151,358.7v-2.1 M150,356.6v-1.1 M148.9,355.5v-1.1 M148.4,353.9h-2.1 M146.2,352.8H143 M143,351.7h-4.8
		 M134.4,351.7h3.8 M138.2,351.7V334 M137.1,334v-4.3 M136,329.7v-3.2 M134.9,326.5v-2.1 M133.9,324.4v-2.1 M132.8,322.2v-1.1
		 M131.7,321.1v-1.1 M131.2,319.5H129 M129,318.5h-3.2 M125.8,317.4h-8.6 M117.2,318.5H114 M114,319.5h-2.1 M111.3,320.1v1.1
		 M110.3,321.1v1.1 M109.2,322.2v2.1 M108.1,324.4v2.1 M107,326.5v3.2 M106,329.7v4.8 M108.1,334.6h-4.3 M100.1,334.6h3.8
		 M103.8,334.6v-17.7 M100.1,335.6h-3.2 M96.8,336.7h-2.1 M94.7,337.8h-1.1 M93.6,338.9h-1.1 M92,339.4v2.1 M90.9,341.5v2.1
		 M89.9,343.7v3.2 M88.8,346.9v4.3 M108.7,335.6h3.2 M111.9,336.7h2.1 M114.6,337.2v1.1 M115.6,338.3v1.1 M116.7,339.4v2.1
		 M117.8,341.5v2.1 M118.8,343.7v3.2 M119.9,346.9v4.3 M134.4,352.8h-3.2 M131.2,353.9H129 M128.5,354.4v1.1 M127.4,355.5v1.1
		 M126.4,356.6v2.1 M125.3,358.7v2.1 M124.2,360.9v3.2 M123.1,364.1v3.8 M102.8,315.8v1.1"/>
</g>
<g id="Tanooki">
	<path class="st3" d="M123.3,188h-5v2.5h-2.5v9.9h-2.5v12.4h2.5v5h2.5v2.5h2.5v2.5h-2.5v2.5h-2.5v2.5h-2.5v5H98.5v2.5H96v9.9h2.5
		v2.5h14.9v5h2.5v2.5h5v-2.5h5V250h7.4v-2.5h7.4v2.5h9.9v-2.5h2.5v-9.9h-2.5v-5H148v-5h-2.5v-2.5h2.5v-2.5h2.5v-7.4h2.5v-12.4h-2.5
		v-2.5h2.5v-9.9h-2.5V188h-9.9v2.5h-7.4V188h-5v2.5h-5V188z M123.3,190.5v2.5h5v-2.5h5v2.5h5v2.5h2.5v-5h2.5v7.4h2.5v7.4h-2.5v-2.5
		h-12.4v2.5h-2.5v2.5h-2.5v5h2.5v-5h2.5v-2.5h2.5v5h2.5v-5h2.5v5h2.5v-5h2.5v5h2.5v5h-2.5v2.5h-5v-2.5h-5v-2.5h-2.5v2.5h-2.5v2.5h5
		v2.5h7.4v2.5h-12.4v-2.5h-7.4v-2.5h-2.5v-5h-2.5v-12.4h2.5v-9.9H123.3z M143.1,225.2v2.5h2.5v5h-2.5v2.5h-2.5v2.5h2.5v-2.5h5v2.5
		h2.5v7.4H148v2.5h-7.4V245h-7.4v2.5h-7.4V245h-2.5v-2.5h7.4v-2.5h2.5v-2.5h2.5v-5h-2.5v-2.5h-2.5v-2.5h-7.4v2.5h-2.5v2.5h-2.5v2.5
		h-2.5v-7.4h2.5v-2.5h2.5v-2.5h7.4v2.5H143.1z M118.3,240.1h-2.5v2.5h-2.5v2.5H101v-2.5h-2.5v-5h2.5v-2.5h14.9v2.5h2.5V240.1z
		 M123.3,240.1v-2.5h-2.5v-5h2.5v-2.5h7.4v2.5h2.5v5h-2.5v2.5H123.3z M123.3,240.1h-5v5h-2.5v7.4h5V250h5v-2.5h-2.5V245h-2.5v-2.5
		h2.5V240.1z M145.6,198h2.5v2.5h2.5v-9.9h-5V198z M145.6,210.3v-2.5h2.5v-5h2.5v12.4H148v-5H145.6z M143.1,225.2h2.5v-2.5h2.5v-5
		h-2.5v2.5h-2.5V225.2z"/>
	<path class="st4" d="M123.3,190.5h-5v9.9h5V198h2.5v-5h-2.5V190.5z"/>
	<path class="st4" d="M140.6,190.5h2.5v5h-2.5V190.5z"/>
	<path class="st4" d="M145.6,190.5v7.4h2.5v2.5h2.5v-9.9H145.6z"/>
	<path class="st4" d="M130.7,207.9h-2.5v5h-2.5v5h2.5v2.5h2.5v2.5h9.9v-2.5h-7.4v-2.5h-5v-2.5h2.5v-2.5h2.5v2.5h5v2.5h5v-2.5h2.5v-5
		h-2.5v-5h-2.5v5h-2.5v-5h-2.5v5h-2.5v-5h-2.5V207.9z"/>
	<path class="st4" d="M130.7,230.2h-7.4v2.5h-2.5v5h2.5v2.5h7.4v-2.5h2.5v-5h-2.5V230.2z"/>
	<path class="st4" d="M140.6,237.6v-2.5h2.5v2.5h5v7.4h-2.5v2.5h2.5V245h2.5v-7.4H148v-2.5h-5v-2.5h2.5v-5h-7.4v2.5h-2.5v7.4H140.6z
		"/>
	<path class="st4" d="M120.8,240.1h-2.5v-2.5h-2.5v-2.5h-2.5v7.4h2.5v-2.5h2.5v5h-2.5v7.4h2.5v-5h2.5V240.1z"/>
	<path class="st4" d="M108.4,235.1h-5v9.9h5V235.1z"/>
	<path class="st5" d="M133.2,190.5h-5v2.5h-2.5v5h-2.5v2.5h-7.4v12.4h2.5v5h2.5v2.5h7.4v2.5h-7.4v2.5h-2.5v2.5h-2.5v7.4h2.5v-2.5
		h2.5v-2.5h2.5v-2.5h7.4v2.5h2.5v2.5h2.5v-2.5h2.5v-2.5h5v-2.5h2.5v-2.5h2.5v-5h-2.5v2.5h-2.5v5h-14.9v-2.5h2.5v-2.5h-2.5v-2.5h-2.5
		v-9.9h2.5v-2.5h2.5v-2.5h12.4v2.5h2.5V198h-2.5v-2.5h-5V193h-5V190.5z"/>
	<path class="st5" d="M148,202.9h2.5v12.4H148v-5h-2.5v-2.5h2.5V202.9z"/>
	<path class="st5" d="M108.4,235.1h5v9.9h-5V235.1z"/>
	<path class="st5" d="M103.4,235.1H101v2.5h-2.5v5h2.5v2.5h2.5V235.1z"/>
	<path class="st5" d="M120.8,247.5h-2.5v5h2.5V250h5v-2.5h7.4V245h7.4v2.5h5V245h2.5v-7.4h-14.9v2.5h-2.5v2.5h-7.4v-2.5h-2.5v2.5
		h2.5v2.5h-2.5V247.5z"/>
	<path class="st5" d="M123.3,245h2.5v2.5h-2.5V245z"/>
</g>
<g id="Pipe">
	<g id="Pipe_Bottom">
		<rect x="94.7" y="272" width="59.6" height="70"/>
		<rect x="96.6" y="276.4" class="st6" width="55.8" height="56.9"/>
		<path class="st1" d="M131.9,280.8h20.5v52.5h-20.5V280.8z"/>
		<path class="st1" d="M115.2,280.8h14.9v52.5h-14.9V280.8z"/>
		<path class="st1" d="M109.6,280.8h3.7v52.5h-3.7V280.8z"/>
		<path class="st1" d="M96.6,280.8h3.7v52.5h-3.7V280.8z"/>
		<path class="st1" d="M102.2,280.8h1.9v52.5h-1.9V280.8z"/>
		<path d="M150.6,280.8h1.9v52.5h-1.9V280.8z"/>
		<path d="M137.5,280.8h1.9v52.5h-1.9V280.8z"/>
		<path d="M133.8,280.8h1.9v52.5h-1.9V280.8z"/>
		<path d="M141.3,280.8h7.4v52.5h-7.4V280.8z"/>
	</g>
	<g id="Pipe_Top_00000081612147643541083890000007435470301885129146_">
		<rect x="89" y="256" width="71" height="26"/>
		<rect x="91.2" y="257.6" class="st6" width="66.6" height="21.1"/>
		<path class="st1" d="M133.4,259.2h24.4v19.5h-24.4V259.2z"/>
		<path class="st1" d="M113.4,259.2h17.8v19.5h-17.8V259.2z"/>
		<path class="st1" d="M106.8,259.2h4.4v19.5h-4.4V259.2z"/>
		<path class="st1" d="M91.2,259.2h4.4v19.5h-4.4V259.2z"/>
		<path class="st1" d="M97.9,259.2h2.2v19.5h-2.2V259.2z"/>
		<path d="M155.6,259.2h2.2v19.5h-2.2V259.2z"/>
		<path d="M140,259.2h2.2v19.5H140V259.2z"/>
		<path d="M135.6,259.2h2.2v19.5h-2.2V259.2z"/>
		<path d="M144.5,259.2h8.9v19.5h-8.9V259.2z"/>
	</g>
</g>
<g id="Large_Cloud">
	<path class="st7" d="M300.5,9.8h18.3v2.1h4.1V18h6.1v-4.1h4.1V9.8h20.3v2.1h2V18h4.1v6.2h10.2v2.1h4.1v14.4h-4.1v6.2h-4.1v4.1
		h-12.2v-2.1h-8.1v2.1h-4.1v2.1H333v-2.1h-4.1v-2.1h-2v2.1h-8.1v-2.1h-6.1v4.1h-12.2v-2.1h-4.1v-2.1h-2v-2.1h-10.2v-4.1h-4.1V30.3
		h4.1v-4.1h10.2V18h2v-4.1h4.1V9.8z"/>
	<path d="M347.2,15.9h-2v6.2h2V15.9z"/>
	<path d="M339.1,15.9h2v6.2h-2V15.9z"/>
	<path d="M314.7,15.9h-2v6.2h2V15.9z"/>
	<path d="M306.6,15.9h2v6.2h-2V15.9z"/>
	<path class="st3" d="M316.7,7.7h-12.2v2.1h-4.1v2.1h-2v2.1h-2V18h-2v4.1h-2v2.1h-4.1v2.1h-4.1v2.1h-2v2.1h-2v4.1h-2v4.1h2v4.1h2
		v2.1h2v2.1h4.1v2.1h6.1v2.1h2v2.1h4.1V55h8.1v-2.1h4.1v-2.1h2v-2.1h2v2.1h4.1v2.1h6.1v-2.1h2v2.1h4.1V55h8.1v-2.1h4.1v-2.1h2v-2.1
		h2v2.1h4.1v2.1h8.1v-2.1h4.1v-2.1h2v-2.1h2v-4.1h2v-2.1h2v-4.1h2v-6.2h-2v-4.1h-2v-2.1h-4.1v-2.1h-8.1V18h-2v-4.1h-2v-2.1h-2V9.8
		h-4.1V7.7H337v2.1H333v2.1h-2v2.1h-2V18h-4.1v-4.1h-2v-2.1h-2V9.8h-4.1V7.7z M316.7,9.8v2.1h4.1v2.1h2V18h2v4.1h4.1V18h2v-4.1h2
		v-2.1h4.1V9.8h12.2v2.1h4.1v2.1h2V18h2v4.1h2v2.1h8.1v2.1h4.1v4.1h2v6.2h-2v4.1h-4.1v6.2h-2v2.1h-4.1v2.1h-8.1v-2.1h-4.1v-2.1h-4.1
		v4.1h-4.1v2.1H333v-2.1h-4.1v-2.1h-2v2.1h-6.1v-2.1h-4.1v-2.1h-4.1v4.1h-4.1v2.1h-8.1v-2.1h-4.1v-2.1h-2v-2.1h-6.1v-2.1h-4.1v-2.1
		h-2v-4.1h-2v-4.1h2v-4.1h2v-2.1h4.1v-2.1h6.1v-4.1h2V18h2v-4.1h2v-2.1h4.1V9.8H316.7z"/>
	<path class="st8" d="M318.8,15.9h2V18h-2V15.9z M320.8,18h2v4.1h-2V18z"/>
	<path class="st9" d="M286.3,40.6h-2v2.1h2V40.6z"/>
	<path class="st9" d="M288.3,42.7h4.1v-2.1h2v-2.1h2v4.1h-2v2.1h-6.1V42.7z"/>
	<path class="st9" d="M300.5,46.8h-2v2.1h2v2.1h8.1v-2.1h2v-2.1h2v-6.2h-4.1v6.2h-2v2.1h-6.1V46.8z"/>
	<path class="st9" d="M320.8,44.7h-2v2.1h2V44.7z"/>
	<path class="st9" d="M322.8,46.8h4.1v2.1h-4.1V46.8z"/>
	<path class="st9" d="M328.9,38.6h-2v4.1h2V38.6z"/>
	<path class="st8" d="M331,46.8h2v2.1h-2V46.8z M333,48.8h6.1v-2.1h2v-6.2h4.1v6.2h-2v2.1h-2v2.1H333V48.8z"/>
	<path class="st9" d="M351.3,44.7h2v2.1h-2V44.7z"/>
	<path class="st9" d="M359.4,46.8h-4.1v2.1h4.1V46.8z"/>
	<path class="st8" d="M367.5,30.3h-2v-2.1h2V30.3z M367.5,30.3v4.1h-2v2.1h-6.1v2.1h2v6.2h-2v2.1h4.1v-2.1h2v-6.2h2v-2.1h2v-6.2
		H367.5z"/>
	<path class="st8" d="M353.3,15.9h-2V18h2V15.9z M353.3,18h2v4.1h-2V18z"/>
</g>
<g id="Large_Cloud_00000149355261949206926800000001581931288773314223_">
	<path class="st7" d="M637.5,52.8h18.3v2.1h4.1V61h6.1v-4.1h4.1v-4.1h20.3v2.1h2V61h4.1v6.2h10.2v2.1h4.1v14.4h-4.1v6.2h-4.1v4.1
		h-12.2v-2.1h-8.1v2.1h-4.1v2.1H670v-2.1h-4.1v-2.1h-2v2.1h-8.1v-2.1h-6.1v4.1h-12.2v-2.1h-4.1v-2.1h-2v-2.1h-10.2v-4.1h-4.1V73.3
		h4.1v-4.1h10.2V61h2v-4.1h4.1V52.8z"/>
	<path d="M684.2,58.9h-2v6.2h2V58.9z"/>
	<path d="M676.1,58.9h2v6.2h-2V58.9z"/>
	<path d="M651.7,58.9h-2v6.2h2V58.9z"/>
	<path d="M643.6,58.9h2v6.2h-2V58.9z"/>
	<path class="st3" d="M653.7,50.7h-12.2v2.1h-4.1v2.1h-2v2.1h-2V61h-2v4.1h-2v2.1h-4.1v2.1h-4.1v2.1h-2v2.1h-2v4.1h-2v4.1h2v4.1h2
		v2.1h2v2.1h4.1v2.1h6.1v2.1h2v2.1h4.1V98h8.1v-2.1h4.1v-2.1h2v-2.1h2v2.1h4.1v2.1h6.1v-2.1h2v2.1h4.1V98h8.1v-2.1h4.1v-2.1h2v-2.1
		h2v2.1h4.1v2.1h8.1v-2.1h4.1v-2.1h2v-2.1h2v-4.1h2v-2.1h2v-4.1h2v-6.2h-2v-4.1h-2v-2.1h-4.1v-2.1h-8.1V61h-2v-4.1h-2v-2.1h-2v-2.1
		h-4.1v-2.1H674v2.1H670v2.1h-2v2.1h-2V61h-4.1v-4.1h-2v-2.1h-2v-2.1h-4.1V50.7z M653.7,52.8v2.1h4.1v2.1h2V61h2v4.1h4.1V61h2v-4.1
		h2v-2.1h4.1v-2.1h12.2v2.1h4.1v2.1h2V61h2v4.1h2v2.1h8.1v2.1h4.1v4.1h2v6.2h-2v4.1h-4.1v6.2h-2v2.1h-4.1v2.1h-8.1v-2.1h-4.1v-2.1
		h-4.1v4.1h-4.1v2.1H670v-2.1h-4.1v-2.1h-2v2.1h-6.1v-2.1h-4.1v-2.1h-4.1v4.1h-4.1v2.1h-8.1v-2.1h-4.1v-2.1h-2v-2.1h-6.1v-2.1h-4.1
		v-2.1h-2v-4.1h-2v-4.1h2v-4.1h2v-2.1h4.1v-2.1h6.1v-4.1h2V61h2v-4.1h2v-2.1h4.1v-2.1H653.7z"/>
	<path class="st8" d="M655.8,58.9h2V61h-2V58.9z M657.8,61h2v4.1h-2V61z"/>
	<path class="st9" d="M623.3,83.6h-2v2.1h2V83.6z"/>
	<path class="st9" d="M625.3,85.7h4.1v-2.1h2v-2.1h2v4.1h-2v2.1h-6.1V85.7z"/>
	<path class="st9" d="M637.5,89.8h-2v2.1h2v2.1h8.1v-2.1h2v-2.1h2v-6.2h-4.1v6.2h-2v2.1h-6.1V89.8z"/>
	<path class="st9" d="M657.8,87.7h-2v2.1h2V87.7z"/>
	<path class="st9" d="M659.8,89.8h4.1v2.1h-4.1V89.8z"/>
	<path class="st9" d="M665.9,81.6h-2v4.1h2V81.6z"/>
	<path class="st8" d="M668,89.8h2v2.1h-2V89.8z M670,91.8h6.1v-2.1h2v-6.2h4.1v6.2h-2v2.1h-2v2.1H670V91.8z"/>
	<path class="st9" d="M688.3,87.7h2v2.1h-2V87.7z"/>
	<path class="st9" d="M696.4,89.8h-4.1v2.1h4.1V89.8z"/>
	<path class="st8" d="M704.5,73.3h-2v-2.1h2V73.3z M704.5,73.3v4.1h-2v2.1h-6.1v2.1h2v6.2h-2v2.1h4.1v-2.1h2v-6.2h2v-2.1h2v-6.2
		H704.5z"/>
	<path class="st8" d="M690.3,58.9h-2V61h2V58.9z M690.3,61h2v4.1h-2V61z"/>
</g>
<g id="Large_Cloud_00000080176203641832922080000001008075397792543632_">
	<path class="st7" d="M39.5,77.8h18.3v2.1h4.1V86h6.1v-4.1H72v-4.1h20.3v2.1h2V86h4.1v6.2h10.2v2.1h4.1v14.4h-4.1v6.2h-4.1v4.1H92.3
		v-2.1h-8.1v2.1h-4.1v2.1H72v-2.1h-4.1v-2.1h-2v2.1h-8.1v-2.1h-6.1v4.1H39.5v-2.1h-4.1v-2.1h-2v-2.1H23.2v-4.1h-4.1V98.3h4.1v-4.1
		h10.2V86h2v-4.1h4.1V77.8z"/>
	<path d="M86.2,83.9h-2v6.2h2V83.9z"/>
	<path d="M78.1,83.9h2v6.2h-2V83.9z"/>
	<path d="M53.7,83.9h-2v6.2h2V83.9z"/>
	<path d="M45.6,83.9h2v6.2h-2V83.9z"/>
	<path class="st3" d="M55.7,75.7H43.5v2.1h-4.1v2.1h-2v2.1h-2V86h-2v4.1h-2v2.1h-4.1v2.1h-4.1v2.1h-2v2.1h-2v4.1h-2v4.1h2v4.1h2v2.1
		h2v2.1h4.1v2.1h6.1v2.1h2v2.1h4.1v2.1h8.1v-2.1h4.1v-2.1h2v-2.1h2v2.1h4.1v2.1h6.1v-2.1h2v2.1H72v2.1h8.1v-2.1h4.1v-2.1h2v-2.1h2
		v2.1h4.1v2.1h8.1v-2.1h4.1v-2.1h2v-2.1h2v-4.1h2v-2.1h2v-4.1h2v-6.2h-2v-4.1h-2v-2.1h-4.1v-2.1h-8.1V86h-2v-4.1h-2v-2.1h-2v-2.1
		h-4.1v-2.1H76v2.1H72v2.1h-2v2.1h-2V86h-4.1v-4.1h-2v-2.1h-2v-2.1h-4.1V75.7z M55.7,77.8v2.1h4.1v2.1h2V86h2v4.1h4.1V86h2v-4.1h2
		v-2.1H76v-2.1h12.2v2.1h4.1v2.1h2V86h2v4.1h2v2.1h8.1v2.1h4.1v4.1h2v6.2h-2v4.1h-4.1v6.2h-2v2.1h-4.1v2.1h-8.1v-2.1h-4.1v-2.1h-4.1
		v4.1h-4.1v2.1H72v-2.1h-4.1v-2.1h-2v2.1h-6.1v-2.1h-4.1v-2.1h-4.1v4.1h-4.1v2.1h-8.1v-2.1h-4.1v-2.1h-2v-2.1h-6.1v-2.1h-4.1v-2.1
		h-2v-4.1h-2v-4.1h2v-4.1h2v-2.1h4.1v-2.1h6.1v-4.1h2V86h2v-4.1h2v-2.1h4.1v-2.1H55.7z"/>
	<path class="st8" d="M57.8,83.9h2V86h-2V83.9z M59.8,86h2v4.1h-2V86z"/>
	<path class="st9" d="M25.3,108.6h-2v2.1h2V108.6z"/>
	<path class="st9" d="M27.3,110.7h4.1v-2.1h2v-2.1h2v4.1h-2v2.1h-6.1V110.7z"/>
	<path class="st9" d="M39.5,114.8h-2v2.1h2v2.1h8.1v-2.1h2v-2.1h2v-6.2h-4.1v6.2h-2v2.1h-6.1V114.8z"/>
	<path class="st9" d="M59.8,112.7h-2v2.1h2V112.7z"/>
	<path class="st9" d="M61.8,114.8h4.1v2.1h-4.1V114.8z"/>
	<path class="st9" d="M67.9,106.6h-2v4.1h2V106.6z"/>
	<path class="st8" d="M70,114.8h2v2.1h-2V114.8z M72,116.8h6.1v-2.1h2v-6.2h4.1v6.2h-2v2.1h-2v2.1H72V116.8z"/>
	<path class="st9" d="M90.3,112.7h2v2.1h-2V112.7z"/>
	<path class="st9" d="M98.4,114.8h-4.1v2.1h4.1V114.8z"/>
	<path class="st8" d="M106.5,98.3h-2v-2.1h2V98.3z M106.5,98.3v4.1h-2v2.1h-6.1v2.1h2v6.2h-2v2.1h4.1v-2.1h2v-6.2h2v-2.1h2v-6.2
		H106.5z"/>
	<path class="st8" d="M92.3,83.9h-2V86h2V83.9z M92.3,86h2v4.1h-2V86z"/>
</g>
<g id="Small_Cloud">
	<path class="st7" d="M537.1,12.8h17.7v1.8h1.8v5.3h3.5v5.3h8.8V27h3.5v12.5h-3.5v5.3h-3.5v3.6h-10.6v-1.8h-7.1v1.8h-3.5v1.8h-7.1
		v-1.8h-3.5v-1.8H530v-1.8h-7.1v-3.6h-3.5V30.6h3.5V27h7.1v-3.6h3.5v-7.1h3.5V12.8z"/>
	<path d="M549.4,18.1h-1.8v5.3h1.8V18.1z"/>
	<path d="M542.4,18.1h1.8v5.3h-1.8V18.1z"/>
	<path class="st3" d="M551.2,11h-10.6v1.8h-3.5v1.8h-1.8v1.8h-1.8v3.6h-1.8v3.6H530v1.8h-3.5V27h-3.5v1.8h-1.8v1.8h-1.8v3.6h-1.8
		v3.6h1.8v3.6h1.8v1.8h1.8v1.8h3.5v1.8h5.3v1.8h1.8v1.8h3.5V52h7.1v-1.8h3.5v-1.8h1.8v-1.8h1.8v1.8h3.5v1.8h7.1v-1.8h3.5v-1.8h1.8
		v-1.8h1.8v-3.6h1.8v-1.8h1.8V36h1.8v-5.3h-1.8V27h-1.8v-1.8h-3.5v-1.8H560v-3.6h-1.8v-3.6h-1.8v-1.8h-1.8v-1.8h-3.5V11z
		 M551.2,12.8v1.8h3.5v1.8h1.8v3.6h1.8v3.6h1.8v1.8h7.1V27h3.5v3.6h1.8V36h-1.8v3.6h-3.5v5.3h-1.8v1.8h-3.5v1.8h-7.1v-1.8h-3.5v-1.8
		h-3.5v3.6h-3.5v1.8h-7.1v-1.8h-3.5v-1.8h-1.8v-1.8h-5.3v-1.8h-3.5v-1.8h-1.8v-3.6h-1.8v-3.6h1.8v-3.6h1.8v-1.8h3.5V27h5.3v-3.6h1.8
		v-3.6h1.8v-3.6h1.8v-1.8h3.5v-1.8H551.2z"/>
	<path class="st9" d="M554.7,18.1H553v1.8h1.8v3.6h1.8v-3.6h-1.8V18.1z"/>
	<path class="st9" d="M567.1,28.8h-1.8v1.8h1.8v3.6h-1.8V36H560v1.8h1.8v5.3H560v1.8h-3.5v1.8h3.5v-1.8h3.5v-1.8h1.8v-5.3h1.8V36
		h1.8v-5.3h-1.8V28.8z"/>
	<path class="st9" d="M533.5,37.7h-1.8v1.8H530v1.8h-3.5v1.8h5.3v-1.8h1.8V37.7z"/>
	<path class="st9" d="M524.7,39.5h-1.8v1.8h1.8V39.5z"/>
	<path class="st8" d="M535.3,44.9h1.8v1.8h-1.8V44.9z M537.1,46.7h5.3v-1.8h1.8v-5.3h3.5v5.3h-1.8v1.8h-1.8v1.8h-7.1V46.7z"/>
	<path class="st9" d="M553,43.1h1.8v1.8H553V43.1z"/>
</g>
<g id="Small_Cloud_00000041285968833438577210000002845265170473132428_">
	<path class="st7" d="M412.1,49.8h17.7v1.8h1.8v5.3h3.5v5.3h8.8V64h3.5v12.5h-3.5v5.3h-3.5v3.6h-10.6v-1.8h-7.1v1.8h-3.5v1.8h-7.1
		v-1.8h-3.5v-1.8H405v-1.8h-7.1v-3.6h-3.5V67.6h3.5V64h7.1v-3.6h3.5v-7.1h3.5V49.8z"/>
	<path d="M424.4,55.1h-1.8v5.3h1.8V55.1z"/>
	<path d="M417.4,55.1h1.8v5.3h-1.8V55.1z"/>
	<path class="st3" d="M426.2,48h-10.6v1.8h-3.5v1.8h-1.8v1.8h-1.8v3.6h-1.8v3.6H405v1.8h-3.5V64h-3.5v1.8h-1.8v1.8h-1.8v3.6h-1.8
		v3.6h1.8v3.6h1.8v1.8h1.8v1.8h3.5v1.8h5.3v1.8h1.8v1.8h3.5V89h7.1v-1.8h3.5v-1.8h1.8v-1.8h1.8v1.8h3.5v1.8h7.1v-1.8h3.5v-1.8h1.8
		v-1.8h1.8v-3.6h1.8v-1.8h1.8V73h1.8v-5.3h-1.8V64h-1.8v-1.8h-3.5v-1.8H435v-3.6h-1.8v-3.6h-1.8v-1.8h-1.8v-1.8h-3.5V48z
		 M426.2,49.8v1.8h3.5v1.8h1.8v3.6h1.8v3.6h1.8v1.8h7.1V64h3.5v3.6h1.8V73h-1.8v3.6h-3.5v5.3h-1.8v1.8h-3.5v1.8h-7.1v-1.8h-3.5v-1.8
		h-3.5v3.6h-3.5v1.8h-7.1v-1.8h-3.5v-1.8h-1.8v-1.8h-5.3v-1.8h-3.5v-1.8h-1.8v-3.6h-1.8v-3.6h1.8v-3.6h1.8v-1.8h3.5V64h5.3v-3.6h1.8
		v-3.6h1.8v-3.6h1.8v-1.8h3.5v-1.8H426.2z"/>
	<path class="st9" d="M429.7,55.1H428v1.8h1.8v3.6h1.8v-3.6h-1.8V55.1z"/>
	<path class="st9" d="M442.1,65.8h-1.8v1.8h1.8v3.6h-1.8V73H435v1.8h1.8v5.3H435v1.8h-3.5v1.8h3.5v-1.8h3.5v-1.8h1.8v-5.3h1.8V73
		h1.8v-5.3h-1.8V65.8z"/>
	<path class="st9" d="M408.5,74.7h-1.8v1.8H405v1.8h-3.5v1.8h5.3v-1.8h1.8V74.7z"/>
	<path class="st9" d="M399.7,76.5h-1.8v1.8h1.8V76.5z"/>
	<path class="st8" d="M410.3,81.9h1.8v1.8h-1.8V81.9z M412.1,83.7h5.3v-1.8h1.8v-5.3h3.5v5.3h-1.8v1.8h-1.8v1.8h-7.1V83.7z"/>
	<path class="st9" d="M428,80.1h1.8v1.8H428V80.1z"/>
</g>
<g id="Small_Cloud_00000152970684248578397350000000826890788874044839_">
	<path class="st7" d="M166.1,43.8h17.7v1.8h1.8v5.3h3.5v5.3h8.8V58h3.5v12.5h-3.5v5.3h-3.5v3.6h-10.6v-1.8h-7.1v1.8h-3.5v1.8h-7.1
		v-1.8h-3.5v-1.8H159v-1.8h-7.1v-3.6h-3.5V61.6h3.5V58h7.1v-3.6h3.5v-7.1h3.5V43.8z"/>
	<path d="M178.4,49.1h-1.8v5.3h1.8V49.1z"/>
	<path d="M171.4,49.1h1.8v5.3h-1.8V49.1z"/>
	<path class="st3" d="M180.2,42h-10.6v1.8h-3.5v1.8h-1.8v1.8h-1.8v3.6h-1.8v3.6H159v1.8h-3.5V58h-3.5v1.8h-1.8v1.8h-1.8v3.6h-1.8
		v3.6h1.8v3.6h1.8v1.8h1.8v1.8h3.5v1.8h5.3v1.8h1.8v1.8h3.5V83h7.1v-1.8h3.5v-1.8h1.8v-1.8h1.8v1.8h3.5v1.8h7.1v-1.8h3.5v-1.8h1.8
		v-1.8h1.8v-3.6h1.8v-1.8h1.8V67h1.8v-5.3h-1.8V58h-1.8v-1.8h-3.5v-1.8H189v-3.6h-1.8v-3.6h-1.8v-1.8h-1.8v-1.8h-3.5V42z
		 M180.2,43.8v1.8h3.5v1.8h1.8v3.6h1.8v3.6h1.8v1.8h7.1V58h3.5v3.6h1.8V67h-1.8v3.6h-3.5v5.3h-1.8v1.8h-3.5v1.8h-7.1v-1.8h-3.5v-1.8
		h-3.5v3.6h-3.5v1.8h-7.1v-1.8h-3.5v-1.8h-1.8v-1.8h-5.3v-1.8h-3.5v-1.8h-1.8v-3.6h-1.8v-3.6h1.8v-3.6h1.8v-1.8h3.5V58h5.3v-3.6h1.8
		v-3.6h1.8v-3.6h1.8v-1.8h3.5v-1.8H180.2z"/>
	<path class="st9" d="M183.7,49.1H182v1.8h1.8v3.6h1.8v-3.6h-1.8V49.1z"/>
	<path class="st9" d="M196.1,59.8h-1.8v1.8h1.8v3.6h-1.8V67H189v1.8h1.8v5.3H189v1.8h-3.5v1.8h3.5v-1.8h3.5v-1.8h1.8v-5.3h1.8V67
		h1.8v-5.3h-1.8V59.8z"/>
	<path class="st9" d="M162.5,68.7h-1.8v1.8H159v1.8h-3.5v1.8h5.3v-1.8h1.8V68.7z"/>
	<path class="st9" d="M153.7,70.5h-1.8v1.8h1.8V70.5z"/>
	<path class="st8" d="M164.3,75.9h1.8v1.8h-1.8V75.9z M166.1,77.7h5.3v-1.8h1.8v-5.3h3.5v5.3h-1.8v1.8h-1.8v1.8h-7.1V77.7z"/>
	<path class="st9" d="M182,74.1h1.8v1.8H182V74.1z"/>
</g>
<path class="st10" d="M207.4,188.3l-20.4-1.4l-12.4-13.2l-1.1-24.9l10.2-16.8l22.7-3l15,8l-7.9,13.3l-13.5-9.4l-7.8,2.4l-2.9,15.4
	l4.8,14.2l13,2.2l1.4-8l-8.9-0.6l0.5-12.6l22.3,1.7V184L207.4,188.3z"/>
<path class="st11" d="M272,188.1l-25.1-3.3l-9.6-18.3l-0.7-19.4l13-18.7l33,3.8l13,21.2l-4.2,24.1L272,188.1z M260.9,170.1l14.1-3.2
	l-0.4-14.2l-15.9-6.4l-5.2,13.4L260.9,170.1z"/>
<path class="st12" d="M338.7,188.1l-25.1-3.3l-9.6-18.3l-0.7-19.4l13-18.7l33,3.8l13,21.2l-4.2,24.1L338.7,188.1z M327.6,170.1
	l14.1-3.2l-0.4-14.2l-15.9-6.4l-5.2,13.4L327.6,170.1z"/>
<path class="st13" d="M408.4,188.3l-20.4-1.4l-12.4-13.2l-1.1-24.9l10.2-16.8l22.7-3l15,8l-7.9,13.3l-13.5-9.4l-7.8,2.4l-2.9,15.4
	l4.8,14.2l13,2.2l1.4-8l-8.9-0.6l0.5-12.6l22.3,1.7V184L408.4,188.3z"/>
<path class="st11" d="M447.9,188.3l-2.5-56.6l18-3.1l0.7,42.7l22.6-4l1.7,18.6L447.9,188.3z"/>
<path class="st12" d="M514.3,188.2l-3-26.2l4.7-31.9l35.8,4.3l-0.4,16.4l-20.6-4l-0.1,9.8l14.7-0.9v12.6l-14.8-2.5l-0.1,9.1l21.8-3
	l2,13.8L514.3,188.2z"/>
<g id="Mushroom">
	<path class="st7" d="M538,138.4h-5v2.5h-10v17.5h-5v5h5v10h25v-10h5v-5h-5v-17.5h-10V138.4z"/>
	<path class="st3" d="M540.5,135.9h-10v2.5h-5v2.5H523v2.5h-2.5v2.5H518v5h-2.5v12.5h2.5v2.5h2.5v5h2.5v2.5h2.5v2.5h20v-2.5h2.5
		v-2.5h2.5v-5h2.5v-2.5h2.5v-12.5H553v-5h-2.5v-2.5H548v-2.5h-2.5v-2.5h-5V135.9z M540.5,138.4v2.5h5v2.5h2.5v2.5h2.5v5h2.5v12.5h-5
		v-2.5h-25v2.5h-5v-12.5h2.5v-5h2.5v-2.5h2.5v-2.5h5v-2.5H540.5z M533,163.4h5v5h2.5v-5h5v2.5h2.5v5h-2.5v2.5h-20v-2.5H523v-5h2.5
		v-2.5h5v5h2.5V163.4z"/>
	<path class="st14" d="M530.5,138.4h2.5v5h-2.5v2.5h-5v-5h5V138.4z"/>
	<path class="st14" d="M540.5,140.9h5v5h-5v-2.5H538v-5h2.5V140.9z"/>
	<path class="st14" d="M525.5,148.4H523v-2.5h-2.5v5H518v7.5h5v-2.5h2.5V148.4z"/>
	<path class="st14" d="M545.5,148.4h2.5v-2.5h2.5v5h2.5v7.5h-5v-2.5h-2.5V148.4z"/>
	<path class="st14" d="M540.5,150.9h2.5v7.5h-2.5v2.5h-10v-2.5H528v-7.5h2.5v-2.5h10V150.9z"/>
</g>
<g id="Brick">
	<rect x="166.4" y="125.4" width="65.6" height="65.6"/>
	<rect x="170.5" y="129.5" class="st15" width="57.4" height="57.4"/>
	<path d="M215.6,129.5h4.1v24.6h8.2v4.1h-20.5v28.7h-4.1v-28.7h-8.2v28.7H191v-28.7h-20.5v-4.1h8.2v-24.6h4.1v24.6h32.8V129.5z"/>
	<path class="st16" d="M186.9,133.6h24.6V150h-24.6V133.6z"/>
	<path class="st16" d="M174.6,162.3h12.3v20.5h-12.3V162.3z"/>
	<path class="st16" d="M223.8,162.3h-12.3v20.5h12.3V162.3z"/>
</g>
<g id="Brick_00000047760028136398394950000011195996501544572036_">
	<rect x="233.4" y="125.4" width="65.6" height="65.6"/>
	<rect x="237.5" y="129.5" class="st15" width="57.4" height="57.4"/>
	<path d="M282.6,129.5h4.1v24.6h8.2v4.1h-20.5v28.7h-4.1v-28.7h-8.2v28.7H258v-28.7h-20.5v-4.1h8.2v-24.6h4.1v24.6h32.8V129.5z"/>
	<path class="st16" d="M253.9,133.6h24.6V150h-24.6V133.6z"/>
	<path class="st16" d="M241.6,162.3h12.3v20.5h-12.3V162.3z"/>
	<path class="st16" d="M290.8,162.3h-12.3v20.5h12.3V162.3z"/>
</g>
<g id="Brick_00000176762512682681297730000016691582320976189104_">
	<rect x="300.4" y="125.4" width="65.6" height="65.6"/>
	<rect x="304.5" y="129.5" class="st15" width="57.4" height="57.4"/>
	<path d="M349.6,129.5h4.1v24.6h8.2v4.1h-20.5v28.7h-4.1v-28.7h-8.2v28.7H325v-28.7h-20.5v-4.1h8.2v-24.6h4.1v24.6h32.8V129.5z"/>
	<path class="st16" d="M320.9,133.6h24.6V150h-24.6V133.6z"/>
	<path class="st16" d="M308.6,162.3h12.3v20.5h-12.3V162.3z"/>
	<path class="st16" d="M357.8,162.3h-12.3v20.5h12.3V162.3z"/>
</g>
<g id="Brick_00000062890052091087174510000017047495423923733919_">
	<rect x="367.4" y="125.4" width="65.6" height="65.6"/>
	<rect x="371.5" y="129.5" class="st15" width="57.4" height="57.4"/>
	<path d="M416.6,129.5h4.1v24.6h8.2v4.1h-20.5v28.7h-4.1v-28.7h-8.2v28.7H392v-28.7h-20.5v-4.1h8.2v-24.6h4.1v24.6h32.8V129.5z"/>
	<path class="st16" d="M387.9,133.6h24.6V150h-24.6V133.6z"/>
	<path class="st16" d="M375.6,162.3h12.3v20.5h-12.3V162.3z"/>
	<path class="st16" d="M424.8,162.3h-12.3v20.5h12.3V162.3z"/>
</g>
<g id="Brick_00000077303333138012730410000005245199136375619212_">
	<rect x="434.4" y="125.4" width="65.6" height="65.6"/>
	<rect x="438.5" y="129.5" class="st15" width="57.4" height="57.4"/>
	<path d="M483.6,129.5h4.1v24.6h8.2v4.1h-20.5v28.7h-4.1v-28.7h-8.2v28.7H459v-28.7h-20.5v-4.1h8.2v-24.6h4.1v24.6h32.8V129.5z"/>
	<path class="st16" d="M454.9,133.6h24.6V150h-24.6V133.6z"/>
	<path class="st16" d="M442.6,162.3h12.3v20.5h-12.3V162.3z"/>
	<path class="st16" d="M491.8,162.3h-12.3v20.5h12.3V162.3z"/>
</g>
<g id="Brick_00000137115790745890061720000015533363841031183257_">
	<rect x="501.4" y="125.4" width="65.6" height="65.6"/>
	<rect x="505.5" y="129.5" class="st15" width="57.4" height="57.4"/>
	<path d="M550.6,129.5h4.1v24.6h8.2v4.1h-20.5v28.7h-4.1v-28.7h-8.2v28.7H526v-28.7h-20.5v-4.1h8.2v-24.6h4.1v24.6h32.8V129.5z"/>
	<path class="st16" d="M521.9,133.6h24.6V150h-24.6V133.6z"/>
	<path class="st16" d="M509.6,162.3h12.3v20.5h-12.3V162.3z"/>
	<path class="st16" d="M558.8,162.3h-12.3v20.5h12.3V162.3z"/>
</g>
<g id="_x3F__Box">
	<rect x="502" y="125.3" width="65" height="65.7"/>
	<rect x="506.1" y="129.4" class="st15" width="56.9" height="57.5"/>
	<rect x="509.9" y="133.2" class="st16" width="53.1" height="53.6"/>
	<path d="M510.1,133.5h4.1v4.1h-4.1V133.5z"/>
	<path d="M554.8,133.5h4.1v4.1h-4.1V133.5z"/>
	<path d="M554.8,178.7h4.1v4.1h-4.1V178.7z"/>
	<path d="M510.1,178.7h4.1v4.1h-4.1V178.7z"/>
	<path d="M550.8,141.7h-28.4v4.1h-4.1v8.2h12.2v-4.1h12.2v8.2h-12.2v8.2h12.2v-4.1h8.1v-4.1h4.1v-12.3h-4.1V141.7z"/>
	<path d="M530.4,170.5h12.2v8.2h-12.2V170.5z"/>
	<path class="st15" d="M546.7,137.6h-28.4v4.1h-4.1v8.2h12.2v-4.1h12.2v8.2h-12.2v8.2h12.2v-4.1h8.1V154h4.1v-12.3h-4.1V137.6z"/>
	<path class="st15" d="M526.4,166.4h12.2v8.2h-12.2V166.4z"/>
</g>
<g id="Ground">
	<g id="Grass">
		<g>
			<path class="st17" d="M-8,322H7v1h2v14h1v11H9H-8v-25V322z"/>
			<path class="st3" d="M1,321h-9v1h1v1h1v-1h2v1h1v-1h3v1h2v-1h4v1h2v1h1v7H8v4h1v2h1v-2H9v-3h1v-8v-1H9v-1H7v-1H2v1H1V321z
				 M-5,324h1v1h-1V324z M-2,326h-1v1h1V326z M1,324h1v1H1V324z M5,324H4v1h1V324z M6,327h1v1H6V327z M5,332H4v1h1V332z M5,335h1v1
				H5V335z M0,335h-1v1h1V335z M-5,332h1v1h-1V332z M-1,330h-1v1h1V330z"/>
			<path class="st18" d="M-2,337h2v1h1v1H0v1h1v-1h3v-1h2v1H5v1h1v-1h2v-1h1v-1h1v1v1H9v1h1v1v1v1v7H-8v-7v-1h1v-1h-1v-1v-1v-1h1v-1
				h1v1h1v-1h1v1h2v1h1v-1h-1V337z M-6,341v1h1v-1H-6z M8,338H7v-1h1V338z M1,338v-1h1v1H1z M-7,339v1h1v-1H-7z M-4,340h-1v-1h1V340
				z M9,342v-1H8v1H9z M6,341h1v1H6V341z M-2,343h1v-1h-1V343z M3,340v1H2v-1H3z M-2,340v1h-1v-1H-2z"/>
		</g>
		<g>
			<path class="st17" d="M8,322h15v1h2v14h1v11h-1H8v-25V322z"/>
			<path class="st3" d="M17,321H8v1h1v1h1v-1h2v1h1v-1h3v1h2v-1h4v1h2v1h1v7h-1v4h1v2h1v-2h-1v-3h1v-8v-1h-1v-1h-2v-1h-5v1h-1V321z
				 M11,324h1v1h-1V324z M14,326h-1v1h1V326z M17,324h1v1h-1V324z M21,324h-1v1h1V324z M22,327h1v1h-1V327z M21,332h-1v1h1V332z
				 M21,335h1v1h-1V335z M16,335h-1v1h1V335z M11,332h1v1h-1V332z M15,330h-1v1h1V330z"/>
			<path class="st18" d="M14,337h2v1h1v1h-1v1h1v-1h3v-1h2v1h-1v1h1v-1h2v-1h1v-1h1v1v1h-1v1h1v1v1v1v7H8v-7v-1h1v-1H8v-1v-1v-1h1
				v-1h1v1h1v-1h1v1h2v1h1v-1h-1V337z M10,341v1h1v-1H10z M24,338h-1v-1h1V338z M17,338v-1h1v1H17z M9,339v1h1v-1H9z M12,340h-1v-1
				h1V340z M25,342v-1h-1v1H25z M22,341h1v1h-1V341z M14,343h1v-1h-1V343z M19,340v1h-1v-1H19z M14,340v1h-1v-1H14z"/>
		</g>
		<g>
			<path class="st17" d="M24,322h15v1h2v14h1v11h-1H24v-25V322z"/>
			<path class="st3" d="M33,321h-9v1h1v1h1v-1h2v1h1v-1h3v1h2v-1h4v1h2v1h1v7h-1v4h1v2h1v-2h-1v-3h1v-8v-1h-1v-1h-2v-1h-5v1h-1V321z
				 M27,324h1v1h-1V324z M30,326h-1v1h1V326z M33,324h1v1h-1V324z M37,324h-1v1h1V324z M38,327h1v1h-1V327z M37,332h-1v1h1V332z
				 M37,335h1v1h-1V335z M32,335h-1v1h1V335z M27,332h1v1h-1V332z M31,330h-1v1h1V330z"/>
			<path class="st18" d="M30,337h2v1h1v1h-1v1h1v-1h3v-1h2v1h-1v1h1v-1h2v-1h1v-1h1v1v1h-1v1h1v1v1v1v7H24v-7v-1h1v-1h-1v-1v-1v-1h1
				v-1h1v1h1v-1h1v1h2v1h1v-1h-1V337z M26,341v1h1v-1H26z M40,338h-1v-1h1V338z M33,338v-1h1v1H33z M25,339v1h1v-1H25z M28,340h-1
				v-1h1V340z M41,342v-1h-1v1H41z M38,341h1v1h-1V341z M30,343h1v-1h-1V343z M35,340v1h-1v-1H35z M30,340v1h-1v-1H30z"/>
		</g>
		<g>
			<path class="st17" d="M40,322h15v1h2v14h1v11h-1H40v-25V322z"/>
			<path class="st3" d="M49,321h-9v1h1v1h1v-1h2v1h1v-1h3v1h2v-1h4v1h2v1h1v7h-1v4h1v2h1v-2h-1v-3h1v-8v-1h-1v-1h-2v-1h-5v1h-1V321z
				 M43,324h1v1h-1V324z M46,326h-1v1h1V326z M49,324h1v1h-1V324z M53,324h-1v1h1V324z M54,327h1v1h-1V327z M53,332h-1v1h1V332z
				 M53,335h1v1h-1V335z M48,335h-1v1h1V335z M43,332h1v1h-1V332z M47,330h-1v1h1V330z"/>
			<path class="st18" d="M46,337h2v1h1v1h-1v1h1v-1h3v-1h2v1h-1v1h1v-1h2v-1h1v-1h1v1v1h-1v1h1v1v1v1v7H40v-7v-1h1v-1h-1v-1v-1v-1h1
				v-1h1v1h1v-1h1v1h2v1h1v-1h-1V337z M42,341v1h1v-1H42z M56,338h-1v-1h1V338z M49,338v-1h1v1H49z M41,339v1h1v-1H41z M44,340h-1
				v-1h1V340z M57,342v-1h-1v1H57z M54,341h1v1h-1V341z M46,343h1v-1h-1V343z M51,340v1h-1v-1H51z M46,340v1h-1v-1H46z"/>
		</g>
		<g>
			<path class="st17" d="M56,322h15v1h2v14h1v11h-1H56v-25V322z"/>
			<path class="st3" d="M65,321h-9v1h1v1h1v-1h2v1h1v-1h3v1h2v-1h4v1h2v1h1v7h-1v4h1v2h1v-2h-1v-3h1v-8v-1h-1v-1h-2v-1h-5v1h-1V321z
				 M59,324h1v1h-1V324z M62,326h-1v1h1V326z M65,324h1v1h-1V324z M69,324h-1v1h1V324z M70,327h1v1h-1V327z M69,332h-1v1h1V332z
				 M69,335h1v1h-1V335z M64,335h-1v1h1V335z M59,332h1v1h-1V332z M63,330h-1v1h1V330z"/>
			<path class="st18" d="M62,337h2v1h1v1h-1v1h1v-1h3v-1h2v1h-1v1h1v-1h2v-1h1v-1h1v1v1h-1v1h1v1v1v1v7H56v-7v-1h1v-1h-1v-1v-1v-1h1
				v-1h1v1h1v-1h1v1h2v1h1v-1h-1V337z M58,341v1h1v-1H58z M72,338h-1v-1h1V338z M65,338v-1h1v1H65z M57,339v1h1v-1H57z M60,340h-1
				v-1h1V340z M73,342v-1h-1v1H73z M70,341h1v1h-1V341z M62,343h1v-1h-1V343z M67,340v1h-1v-1H67z M62,340v1h-1v-1H62z"/>
		</g>
		<g>
			<path class="st17" d="M72,322h15v1h2v14h1v11h-1H72v-25V322z"/>
			<path class="st3" d="M81,321h-9v1h1v1h1v-1h2v1h1v-1h3v1h2v-1h4v1h2v1h1v7h-1v4h1v2h1v-2h-1v-3h1v-8v-1h-1v-1h-2v-1h-5v1h-1V321z
				 M75,324h1v1h-1V324z M78,326h-1v1h1V326z M81,324h1v1h-1V324z M85,324h-1v1h1V324z M86,327h1v1h-1V327z M85,332h-1v1h1V332z
				 M85,335h1v1h-1V335z M80,335h-1v1h1V335z M75,332h1v1h-1V332z M79,330h-1v1h1V330z"/>
			<path class="st18" d="M78,337h2v1h1v1h-1v1h1v-1h3v-1h2v1h-1v1h1v-1h2v-1h1v-1h1v1v1h-1v1h1v1v1v1v7H72v-7v-1h1v-1h-1v-1v-1v-1h1
				v-1h1v1h1v-1h1v1h2v1h1v-1h-1V337z M74,341v1h1v-1H74z M88,338h-1v-1h1V338z M81,338v-1h1v1H81z M73,339v1h1v-1H73z M76,340h-1
				v-1h1V340z M89,342v-1h-1v1H89z M86,341h1v1h-1V341z M78,343h1v-1h-1V343z M83,340v1h-1v-1H83z M78,340v1h-1v-1H78z"/>
		</g>
		<g>
			<path class="st17" d="M88,322h15v1h2v14h1v11h-1H88v-25V322z"/>
			<path class="st3" d="M97,321h-9v1h1v1h1v-1h2v1h1v-1h3v1h2v-1h4v1h2v1h1v7h-1v4h1v2h1v-2h-1v-3h1v-8v-1h-1v-1h-2v-1h-5v1h-1V321z
				 M91,324h1v1h-1V324z M94,326h-1v1h1V326z M97,324h1v1h-1V324z M101,324h-1v1h1V324z M102,327h1v1h-1V327z M101,332h-1v1h1V332z
				 M101,335h1v1h-1V335z M96,335h-1v1h1V335z M91,332h1v1h-1V332z M95,330h-1v1h1V330z"/>
			<path class="st18" d="M94,337h2v1h1v1h-1v1h1v-1h3v-1h2v1h-1v1h1v-1h2v-1h1v-1h1v1v1h-1v1h1v1v1v1v7H88v-7v-1h1v-1h-1v-1v-1v-1h1
				v-1h1v1h1v-1h1v1h2v1h1v-1h-1V337z M90,341v1h1v-1H90z M104,338h-1v-1h1V338z M97,338v-1h1v1H97z M89,339v1h1v-1H89z M92,340h-1
				v-1h1V340z M105,342v-1h-1v1H105z M102,341h1v1h-1V341z M94,343h1v-1h-1V343z M99,340v1h-1v-1H99z M94,340v1h-1v-1H94z"/>
		</g>
		<g>
			<path class="st17" d="M103,322h15v1h2v14h1v11h-1h-17v-25V322z"/>
			<path class="st3" d="M112,321h-9v1h1v1h1v-1h2v1h1v-1h3v1h2v-1h4v1h2v1h1v7h-1v4h1v2h1v-2h-1v-3h1v-8v-1h-1v-1h-2v-1h-5v1h-1V321
				z M106,324h1v1h-1V324z M109,326h-1v1h1V326z M112,324h1v1h-1V324z M116,324h-1v1h1V324z M117,327h1v1h-1V327z M116,332h-1v1h1
				V332z M116,335h1v1h-1V335z M111,335h-1v1h1V335z M106,332h1v1h-1V332z M110,330h-1v1h1V330z"/>
			<path class="st18" d="M109,337h2v1h1v1h-1v1h1v-1h3v-1h2v1h-1v1h1v-1h2v-1h1v-1h1v1v1h-1v1h1v1v1v1v7h-18v-7v-1h1v-1h-1v-1v-1v-1
				h1v-1h1v1h1v-1h1v1h2v1h1v-1h-1V337z M105,341v1h1v-1H105z M119,338h-1v-1h1V338z M112,338v-1h1v1H112z M104,339v1h1v-1H104z
				 M107,340h-1v-1h1V340z M120,342v-1h-1v1H120z M117,341h1v1h-1V341z M109,343h1v-1h-1V343z M114,340v1h-1v-1H114z M109,340v1h-1
				v-1H109z"/>
		</g>
		<g>
			<path class="st17" d="M119,322h15v1h2v14h1v11h-1h-17v-25V322z"/>
			<path class="st3" d="M128,321h-9v1h1v1h1v-1h2v1h1v-1h3v1h2v-1h4v1h2v1h1v7h-1v4h1v2h1v-2h-1v-3h1v-8v-1h-1v-1h-2v-1h-5v1h-1V321
				z M122,324h1v1h-1V324z M125,326h-1v1h1V326z M128,324h1v1h-1V324z M132,324h-1v1h1V324z M133,327h1v1h-1V327z M132,332h-1v1h1
				V332z M132,335h1v1h-1V335z M127,335h-1v1h1V335z M122,332h1v1h-1V332z M126,330h-1v1h1V330z"/>
			<path class="st18" d="M125,337h2v1h1v1h-1v1h1v-1h3v-1h2v1h-1v1h1v-1h2v-1h1v-1h1v1v1h-1v1h1v1v1v1v7h-18v-7v-1h1v-1h-1v-1v-1v-1
				h1v-1h1v1h1v-1h1v1h2v1h1v-1h-1V337z M121,341v1h1v-1H121z M135,338h-1v-1h1V338z M128,338v-1h1v1H128z M120,339v1h1v-1H120z
				 M123,340h-1v-1h1V340z M136,342v-1h-1v1H136z M133,341h1v1h-1V341z M125,343h1v-1h-1V343z M130,340v1h-1v-1H130z M125,340v1h-1
				v-1H125z"/>
		</g>
		<g>
			<path class="st17" d="M135,322h15v1h2v14h1v11h-1h-17v-25V322z"/>
			<path class="st3" d="M144,321h-9v1h1v1h1v-1h2v1h1v-1h3v1h2v-1h4v1h2v1h1v7h-1v4h1v2h1v-2h-1v-3h1v-8v-1h-1v-1h-2v-1h-5v1h-1V321
				z M138,324h1v1h-1V324z M141,326h-1v1h1V326z M144,324h1v1h-1V324z M148,324h-1v1h1V324z M149,327h1v1h-1V327z M148,332h-1v1h1
				V332z M148,335h1v1h-1V335z M143,335h-1v1h1V335z M138,332h1v1h-1V332z M142,330h-1v1h1V330z"/>
			<path class="st18" d="M141,337h2v1h1v1h-1v1h1v-1h3v-1h2v1h-1v1h1v-1h2v-1h1v-1h1v1v1h-1v1h1v1v1v1v7h-18v-7v-1h1v-1h-1v-1v-1v-1
				h1v-1h1v1h1v-1h1v1h2v1h1v-1h-1V337z M137,341v1h1v-1H137z M151,338h-1v-1h1V338z M144,338v-1h1v1H144z M136,339v1h1v-1H136z
				 M139,340h-1v-1h1V340z M152,342v-1h-1v1H152z M149,341h1v1h-1V341z M141,343h1v-1h-1V343z M146,340v1h-1v-1H146z M141,340v1h-1
				v-1H141z"/>
		</g>
		<g>
			<path class="st17" d="M151,322h15v1h2v14h1v11h-1h-17v-25V322z"/>
			<path class="st3" d="M160,321h-9v1h1v1h1v-1h2v1h1v-1h3v1h2v-1h4v1h2v1h1v7h-1v4h1v2h1v-2h-1v-3h1v-8v-1h-1v-1h-2v-1h-5v1h-1V321
				z M154,324h1v1h-1V324z M157,326h-1v1h1V326z M160,324h1v1h-1V324z M164,324h-1v1h1V324z M165,327h1v1h-1V327z M164,332h-1v1h1
				V332z M164,335h1v1h-1V335z M159,335h-1v1h1V335z M154,332h1v1h-1V332z M158,330h-1v1h1V330z"/>
			<path class="st18" d="M157,337h2v1h1v1h-1v1h1v-1h3v-1h2v1h-1v1h1v-1h2v-1h1v-1h1v1v1h-1v1h1v1v1v1v7h-18v-7v-1h1v-1h-1v-1v-1v-1
				h1v-1h1v1h1v-1h1v1h2v1h1v-1h-1V337z M153,341v1h1v-1H153z M167,338h-1v-1h1V338z M160,338v-1h1v1H160z M152,339v1h1v-1H152z
				 M155,340h-1v-1h1V340z M168,342v-1h-1v1H168z M165,341h1v1h-1V341z M157,343h1v-1h-1V343z M162,340v1h-1v-1H162z M157,340v1h-1
				v-1H157z"/>
		</g>
		<g>
			<path class="st17" d="M167,322h15v1h2v14h1v11h-1h-17v-25V322z"/>
			<path class="st3" d="M176,321h-9v1h1v1h1v-1h2v1h1v-1h3v1h2v-1h4v1h2v1h1v7h-1v4h1v2h1v-2h-1v-3h1v-8v-1h-1v-1h-2v-1h-5v1h-1V321
				z M170,324h1v1h-1V324z M173,326h-1v1h1V326z M176,324h1v1h-1V324z M180,324h-1v1h1V324z M181,327h1v1h-1V327z M180,332h-1v1h1
				V332z M180,335h1v1h-1V335z M175,335h-1v1h1V335z M170,332h1v1h-1V332z M174,330h-1v1h1V330z"/>
			<path class="st18" d="M173,337h2v1h1v1h-1v1h1v-1h3v-1h2v1h-1v1h1v-1h2v-1h1v-1h1v1v1h-1v1h1v1v1v1v7h-18v-7v-1h1v-1h-1v-1v-1v-1
				h1v-1h1v1h1v-1h1v1h2v1h1v-1h-1V337z M169,341v1h1v-1H169z M183,338h-1v-1h1V338z M176,338v-1h1v1H176z M168,339v1h1v-1H168z
				 M171,340h-1v-1h1V340z M184,342v-1h-1v1H184z M181,341h1v1h-1V341z M173,343h1v-1h-1V343z M178,340v1h-1v-1H178z M173,340v1h-1
				v-1H173z"/>
		</g>
		<g>
			<path class="st17" d="M183,322h15v1h2v14h1v11h-1h-17v-25V322z"/>
			<path class="st3" d="M192,321h-9v1h1v1h1v-1h2v1h1v-1h3v1h2v-1h4v1h2v1h1v7h-1v4h1v2h1v-2h-1v-3h1v-8v-1h-1v-1h-2v-1h-5v1h-1V321
				z M186,324h1v1h-1V324z M189,326h-1v1h1V326z M192,324h1v1h-1V324z M196,324h-1v1h1V324z M197,327h1v1h-1V327z M196,332h-1v1h1
				V332z M196,335h1v1h-1V335z M191,335h-1v1h1V335z M186,332h1v1h-1V332z M190,330h-1v1h1V330z"/>
			<path class="st18" d="M189,337h2v1h1v1h-1v1h1v-1h3v-1h2v1h-1v1h1v-1h2v-1h1v-1h1v1v1h-1v1h1v1v1v1v7h-18v-7v-1h1v-1h-1v-1v-1v-1
				h1v-1h1v1h1v-1h1v1h2v1h1v-1h-1V337z M185,341v1h1v-1H185z M199,338h-1v-1h1V338z M192,338v-1h1v1H192z M184,339v1h1v-1H184z
				 M187,340h-1v-1h1V340z M200,342v-1h-1v1H200z M197,341h1v1h-1V341z M189,343h1v-1h-1V343z M194,340v1h-1v-1H194z M189,340v1h-1
				v-1H189z"/>
		</g>
		<g>
			<path class="st17" d="M199,322h15v1h2v14h1v11h-1h-17v-25V322z"/>
			<path class="st3" d="M208,321h-9v1h1v1h1v-1h2v1h1v-1h3v1h2v-1h4v1h2v1h1v7h-1v4h1v2h1v-2h-1v-3h1v-8v-1h-1v-1h-2v-1h-5v1h-1V321
				z M202,324h1v1h-1V324z M205,326h-1v1h1V326z M208,324h1v1h-1V324z M212,324h-1v1h1V324z M213,327h1v1h-1V327z M212,332h-1v1h1
				V332z M212,335h1v1h-1V335z M207,335h-1v1h1V335z M202,332h1v1h-1V332z M206,330h-1v1h1V330z"/>
			<path class="st18" d="M205,337h2v1h1v1h-1v1h1v-1h3v-1h2v1h-1v1h1v-1h2v-1h1v-1h1v1v1h-1v1h1v1v1v1v7h-18v-7v-1h1v-1h-1v-1v-1v-1
				h1v-1h1v1h1v-1h1v1h2v1h1v-1h-1V337z M201,341v1h1v-1H201z M215,338h-1v-1h1V338z M208,338v-1h1v1H208z M200,339v1h1v-1H200z
				 M203,340h-1v-1h1V340z M216,342v-1h-1v1H216z M213,341h1v1h-1V341z M205,343h1v-1h-1V343z M210,340v1h-1v-1H210z M205,340v1h-1
				v-1H205z"/>
		</g>
		<g>
			<path class="st17" d="M215,322h15v1h2v14h1v11h-1h-17v-25V322z"/>
			<path class="st3" d="M224,321h-9v1h1v1h1v-1h2v1h1v-1h3v1h2v-1h4v1h2v1h1v7h-1v4h1v2h1v-2h-1v-3h1v-8v-1h-1v-1h-2v-1h-5v1h-1V321
				z M218,324h1v1h-1V324z M221,326h-1v1h1V326z M224,324h1v1h-1V324z M228,324h-1v1h1V324z M229,327h1v1h-1V327z M228,332h-1v1h1
				V332z M228,335h1v1h-1V335z M223,335h-1v1h1V335z M218,332h1v1h-1V332z M222,330h-1v1h1V330z"/>
			<path class="st18" d="M221,337h2v1h1v1h-1v1h1v-1h3v-1h2v1h-1v1h1v-1h2v-1h1v-1h1v1v1h-1v1h1v1v1v1v7h-18v-7v-1h1v-1h-1v-1v-1v-1
				h1v-1h1v1h1v-1h1v1h2v1h1v-1h-1V337z M217,341v1h1v-1H217z M231,338h-1v-1h1V338z M224,338v-1h1v1H224z M216,339v1h1v-1H216z
				 M219,340h-1v-1h1V340z M232,342v-1h-1v1H232z M229,341h1v1h-1V341z M221,343h1v-1h-1V343z M226,340v1h-1v-1H226z M221,340v1h-1
				v-1H221z"/>
		</g>
		<g>
			<path class="st17" d="M231,322h15v1h2v14h1v11h-1h-17v-25V322z"/>
			<path class="st3" d="M240,321h-9v1h1v1h1v-1h2v1h1v-1h3v1h2v-1h4v1h2v1h1v7h-1v4h1v2h1v-2h-1v-3h1v-8v-1h-1v-1h-2v-1h-5v1h-1V321
				z M234,324h1v1h-1V324z M237,326h-1v1h1V326z M240,324h1v1h-1V324z M244,324h-1v1h1V324z M245,327h1v1h-1V327z M244,332h-1v1h1
				V332z M244,335h1v1h-1V335z M239,335h-1v1h1V335z M234,332h1v1h-1V332z M238,330h-1v1h1V330z"/>
			<path class="st18" d="M237,337h2v1h1v1h-1v1h1v-1h3v-1h2v1h-1v1h1v-1h2v-1h1v-1h1v1v1h-1v1h1v1v1v1v7h-18v-7v-1h1v-1h-1v-1v-1v-1
				h1v-1h1v1h1v-1h1v1h2v1h1v-1h-1V337z M233,341v1h1v-1H233z M247,338h-1v-1h1V338z M240,338v-1h1v1H240z M232,339v1h1v-1H232z
				 M235,340h-1v-1h1V340z M248,342v-1h-1v1H248z M245,341h1v1h-1V341z M237,343h1v-1h-1V343z M242,340v1h-1v-1H242z M237,340v1h-1
				v-1H237z"/>
		</g>
		<g>
			<path class="st17" d="M247,322h15v1h2v14h1v11h-1h-17v-25V322z"/>
			<path class="st3" d="M256,321h-9v1h1v1h1v-1h2v1h1v-1h3v1h2v-1h4v1h2v1h1v7h-1v4h1v2h1v-2h-1v-3h1v-8v-1h-1v-1h-2v-1h-5v1h-1V321
				z M250,324h1v1h-1V324z M253,326h-1v1h1V326z M256,324h1v1h-1V324z M260,324h-1v1h1V324z M261,327h1v1h-1V327z M260,332h-1v1h1
				V332z M260,335h1v1h-1V335z M255,335h-1v1h1V335z M250,332h1v1h-1V332z M254,330h-1v1h1V330z"/>
			<path class="st18" d="M253,337h2v1h1v1h-1v1h1v-1h3v-1h2v1h-1v1h1v-1h2v-1h1v-1h1v1v1h-1v1h1v1v1v1v7h-18v-7v-1h1v-1h-1v-1v-1v-1
				h1v-1h1v1h1v-1h1v1h2v1h1v-1h-1V337z M249,341v1h1v-1H249z M263,338h-1v-1h1V338z M256,338v-1h1v1H256z M248,339v1h1v-1H248z
				 M251,340h-1v-1h1V340z M264,342v-1h-1v1H264z M261,341h1v1h-1V341z M253,343h1v-1h-1V343z M258,340v1h-1v-1H258z M253,340v1h-1
				v-1H253z"/>
		</g>
		<g>
			<path class="st17" d="M263,322h15v1h2v14h1v11h-1h-17v-25V322z"/>
			<path class="st3" d="M272,321h-9v1h1v1h1v-1h2v1h1v-1h3v1h2v-1h4v1h2v1h1v7h-1v4h1v2h1v-2h-1v-3h1v-8v-1h-1v-1h-2v-1h-5v1h-1V321
				z M266,324h1v1h-1V324z M269,326h-1v1h1V326z M272,324h1v1h-1V324z M276,324h-1v1h1V324z M277,327h1v1h-1V327z M276,332h-1v1h1
				V332z M276,335h1v1h-1V335z M271,335h-1v1h1V335z M266,332h1v1h-1V332z M270,330h-1v1h1V330z"/>
			<path class="st18" d="M269,337h2v1h1v1h-1v1h1v-1h3v-1h2v1h-1v1h1v-1h2v-1h1v-1h1v1v1h-1v1h1v1v1v1v7h-18v-7v-1h1v-1h-1v-1v-1v-1
				h1v-1h1v1h1v-1h1v1h2v1h1v-1h-1V337z M265,341v1h1v-1H265z M279,338h-1v-1h1V338z M272,338v-1h1v1H272z M264,339v1h1v-1H264z
				 M267,340h-1v-1h1V340z M280,342v-1h-1v1H280z M277,341h1v1h-1V341z M269,343h1v-1h-1V343z M274,340v1h-1v-1H274z M269,340v1h-1
				v-1H269z"/>
		</g>
		<g>
			<path class="st17" d="M279,322h15v1h2v14h1v11h-1h-17v-25V322z"/>
			<path class="st3" d="M288,321h-9v1h1v1h1v-1h2v1h1v-1h3v1h2v-1h4v1h2v1h1v7h-1v4h1v2h1v-2h-1v-3h1v-8v-1h-1v-1h-2v-1h-5v1h-1V321
				z M282,324h1v1h-1V324z M285,326h-1v1h1V326z M288,324h1v1h-1V324z M292,324h-1v1h1V324z M293,327h1v1h-1V327z M292,332h-1v1h1
				V332z M292,335h1v1h-1V335z M287,335h-1v1h1V335z M282,332h1v1h-1V332z M286,330h-1v1h1V330z"/>
			<path class="st18" d="M285,337h2v1h1v1h-1v1h1v-1h3v-1h2v1h-1v1h1v-1h2v-1h1v-1h1v1v1h-1v1h1v1v1v1v7h-18v-7v-1h1v-1h-1v-1v-1v-1
				h1v-1h1v1h1v-1h1v1h2v1h1v-1h-1V337z M281,341v1h1v-1H281z M295,338h-1v-1h1V338z M288,338v-1h1v1H288z M280,339v1h1v-1H280z
				 M283,340h-1v-1h1V340z M296,342v-1h-1v1H296z M293,341h1v1h-1V341z M285,343h1v-1h-1V343z M290,340v1h-1v-1H290z M285,340v1h-1
				v-1H285z"/>
		</g>
		<g>
			<path class="st17" d="M295,322h15v1h2v14h1v11h-1h-17v-25V322z"/>
			<path class="st3" d="M304,321h-9v1h1v1h1v-1h2v1h1v-1h3v1h2v-1h4v1h2v1h1v7h-1v4h1v2h1v-2h-1v-3h1v-8v-1h-1v-1h-2v-1h-5v1h-1V321
				z M298,324h1v1h-1V324z M301,326h-1v1h1V326z M304,324h1v1h-1V324z M308,324h-1v1h1V324z M309,327h1v1h-1V327z M308,332h-1v1h1
				V332z M308,335h1v1h-1V335z M303,335h-1v1h1V335z M298,332h1v1h-1V332z M302,330h-1v1h1V330z"/>
			<path class="st18" d="M301,337h2v1h1v1h-1v1h1v-1h3v-1h2v1h-1v1h1v-1h2v-1h1v-1h1v1v1h-1v1h1v1v1v1v7h-18v-7v-1h1v-1h-1v-1v-1v-1
				h1v-1h1v1h1v-1h1v1h2v1h1v-1h-1V337z M297,341v1h1v-1H297z M311,338h-1v-1h1V338z M304,338v-1h1v1H304z M296,339v1h1v-1H296z
				 M299,340h-1v-1h1V340z M312,342v-1h-1v1H312z M309,341h1v1h-1V341z M301,343h1v-1h-1V343z M306,340v1h-1v-1H306z M301,340v1h-1
				v-1H301z"/>
		</g>
		<g>
			<path class="st17" d="M311,322h15v1h2v14h1v11h-1h-17v-25V322z"/>
			<path class="st3" d="M320,321h-9v1h1v1h1v-1h2v1h1v-1h3v1h2v-1h4v1h2v1h1v7h-1v4h1v2h1v-2h-1v-3h1v-8v-1h-1v-1h-2v-1h-5v1h-1V321
				z M314,324h1v1h-1V324z M317,326h-1v1h1V326z M320,324h1v1h-1V324z M324,324h-1v1h1V324z M325,327h1v1h-1V327z M324,332h-1v1h1
				V332z M324,335h1v1h-1V335z M319,335h-1v1h1V335z M314,332h1v1h-1V332z M318,330h-1v1h1V330z"/>
			<path class="st18" d="M317,337h2v1h1v1h-1v1h1v-1h3v-1h2v1h-1v1h1v-1h2v-1h1v-1h1v1v1h-1v1h1v1v1v1v7h-18v-7v-1h1v-1h-1v-1v-1v-1
				h1v-1h1v1h1v-1h1v1h2v1h1v-1h-1V337z M313,341v1h1v-1H313z M327,338h-1v-1h1V338z M320,338v-1h1v1H320z M312,339v1h1v-1H312z
				 M315,340h-1v-1h1V340z M328,342v-1h-1v1H328z M325,341h1v1h-1V341z M317,343h1v-1h-1V343z M322,340v1h-1v-1H322z M317,340v1h-1
				v-1H317z"/>
		</g>
		<g>
			<path class="st17" d="M327,322h15v1h2v14h1v11h-1h-17v-25V322z"/>
			<path class="st3" d="M336,321h-9v1h1v1h1v-1h2v1h1v-1h3v1h2v-1h4v1h2v1h1v7h-1v4h1v2h1v-2h-1v-3h1v-8v-1h-1v-1h-2v-1h-5v1h-1V321
				z M330,324h1v1h-1V324z M333,326h-1v1h1V326z M336,324h1v1h-1V324z M340,324h-1v1h1V324z M341,327h1v1h-1V327z M340,332h-1v1h1
				V332z M340,335h1v1h-1V335z M335,335h-1v1h1V335z M330,332h1v1h-1V332z M334,330h-1v1h1V330z"/>
			<path class="st18" d="M333,337h2v1h1v1h-1v1h1v-1h3v-1h2v1h-1v1h1v-1h2v-1h1v-1h1v1v1h-1v1h1v1v1v1v7h-18v-7v-1h1v-1h-1v-1v-1v-1
				h1v-1h1v1h1v-1h1v1h2v1h1v-1h-1V337z M329,341v1h1v-1H329z M343,338h-1v-1h1V338z M336,338v-1h1v1H336z M328,339v1h1v-1H328z
				 M331,340h-1v-1h1V340z M344,342v-1h-1v1H344z M341,341h1v1h-1V341z M333,343h1v-1h-1V343z M338,340v1h-1v-1H338z M333,340v1h-1
				v-1H333z"/>
		</g>
		<g>
			<path class="st17" d="M343,322h15v1h2v14h1v11h-1h-17v-25V322z"/>
			<path class="st3" d="M352,321h-9v1h1v1h1v-1h2v1h1v-1h3v1h2v-1h4v1h2v1h1v7h-1v4h1v2h1v-2h-1v-3h1v-8v-1h-1v-1h-2v-1h-5v1h-1V321
				z M346,324h1v1h-1V324z M349,326h-1v1h1V326z M352,324h1v1h-1V324z M356,324h-1v1h1V324z M357,327h1v1h-1V327z M356,332h-1v1h1
				V332z M356,335h1v1h-1V335z M351,335h-1v1h1V335z M346,332h1v1h-1V332z M350,330h-1v1h1V330z"/>
			<path class="st18" d="M349,337h2v1h1v1h-1v1h1v-1h3v-1h2v1h-1v1h1v-1h2v-1h1v-1h1v1v1h-1v1h1v1v1v1v7h-18v-7v-1h1v-1h-1v-1v-1v-1
				h1v-1h1v1h1v-1h1v1h2v1h1v-1h-1V337z M345,341v1h1v-1H345z M359,338h-1v-1h1V338z M352,338v-1h1v1H352z M344,339v1h1v-1H344z
				 M347,340h-1v-1h1V340z M360,342v-1h-1v1H360z M357,341h1v1h-1V341z M349,343h1v-1h-1V343z M354,340v1h-1v-1H354z M349,340v1h-1
				v-1H349z"/>
		</g>
		<g>
			<path class="st17" d="M358,322h15v1h2v14h1v11h-1h-17v-25V322z"/>
			<path class="st3" d="M367,321h-9v1h1v1h1v-1h2v1h1v-1h3v1h2v-1h4v1h2v1h1v7h-1v4h1v2h1v-2h-1v-3h1v-8v-1h-1v-1h-2v-1h-5v1h-1V321
				z M361,324h1v1h-1V324z M364,326h-1v1h1V326z M367,324h1v1h-1V324z M371,324h-1v1h1V324z M372,327h1v1h-1V327z M371,332h-1v1h1
				V332z M371,335h1v1h-1V335z M366,335h-1v1h1V335z M361,332h1v1h-1V332z M365,330h-1v1h1V330z"/>
			<path class="st18" d="M364,337h2v1h1v1h-1v1h1v-1h3v-1h2v1h-1v1h1v-1h2v-1h1v-1h1v1v1h-1v1h1v1v1v1v7h-18v-7v-1h1v-1h-1v-1v-1v-1
				h1v-1h1v1h1v-1h1v1h2v1h1v-1h-1V337z M360,341v1h1v-1H360z M374,338h-1v-1h1V338z M367,338v-1h1v1H367z M359,339v1h1v-1H359z
				 M362,340h-1v-1h1V340z M375,342v-1h-1v1H375z M372,341h1v1h-1V341z M364,343h1v-1h-1V343z M369,340v1h-1v-1H369z M364,340v1h-1
				v-1H364z"/>
		</g>
		<g>
			<path class="st17" d="M374,322h15v1h2v14h1v11h-1h-17v-25V322z"/>
			<path class="st3" d="M383,321h-9v1h1v1h1v-1h2v1h1v-1h3v1h2v-1h4v1h2v1h1v7h-1v4h1v2h1v-2h-1v-3h1v-8v-1h-1v-1h-2v-1h-5v1h-1V321
				z M377,324h1v1h-1V324z M380,326h-1v1h1V326z M383,324h1v1h-1V324z M387,324h-1v1h1V324z M388,327h1v1h-1V327z M387,332h-1v1h1
				V332z M387,335h1v1h-1V335z M382,335h-1v1h1V335z M377,332h1v1h-1V332z M381,330h-1v1h1V330z"/>
			<path class="st18" d="M380,337h2v1h1v1h-1v1h1v-1h3v-1h2v1h-1v1h1v-1h2v-1h1v-1h1v1v1h-1v1h1v1v1v1v7h-18v-7v-1h1v-1h-1v-1v-1v-1
				h1v-1h1v1h1v-1h1v1h2v1h1v-1h-1V337z M376,341v1h1v-1H376z M390,338h-1v-1h1V338z M383,338v-1h1v1H383z M375,339v1h1v-1H375z
				 M378,340h-1v-1h1V340z M391,342v-1h-1v1H391z M388,341h1v1h-1V341z M380,343h1v-1h-1V343z M385,340v1h-1v-1H385z M380,340v1h-1
				v-1H380z"/>
		</g>
		<g>
			<path class="st17" d="M390,322h15v1h2v14h1v11h-1h-17v-25V322z"/>
			<path class="st3" d="M399,321h-9v1h1v1h1v-1h2v1h1v-1h3v1h2v-1h4v1h2v1h1v7h-1v4h1v2h1v-2h-1v-3h1v-8v-1h-1v-1h-2v-1h-5v1h-1V321
				z M393,324h1v1h-1V324z M396,326h-1v1h1V326z M399,324h1v1h-1V324z M403,324h-1v1h1V324z M404,327h1v1h-1V327z M403,332h-1v1h1
				V332z M403,335h1v1h-1V335z M398,335h-1v1h1V335z M393,332h1v1h-1V332z M397,330h-1v1h1V330z"/>
			<path class="st18" d="M396,337h2v1h1v1h-1v1h1v-1h3v-1h2v1h-1v1h1v-1h2v-1h1v-1h1v1v1h-1v1h1v1v1v1v7h-18v-7v-1h1v-1h-1v-1v-1v-1
				h1v-1h1v1h1v-1h1v1h2v1h1v-1h-1V337z M392,341v1h1v-1H392z M406,338h-1v-1h1V338z M399,338v-1h1v1H399z M391,339v1h1v-1H391z
				 M394,340h-1v-1h1V340z M407,342v-1h-1v1H407z M404,341h1v1h-1V341z M396,343h1v-1h-1V343z M401,340v1h-1v-1H401z M396,340v1h-1
				v-1H396z"/>
		</g>
		<g>
			<path class="st17" d="M406,322h15v1h2v14h1v11h-1h-17v-25V322z"/>
			<path class="st3" d="M415,321h-9v1h1v1h1v-1h2v1h1v-1h3v1h2v-1h4v1h2v1h1v7h-1v4h1v2h1v-2h-1v-3h1v-8v-1h-1v-1h-2v-1h-5v1h-1V321
				z M409,324h1v1h-1V324z M412,326h-1v1h1V326z M415,324h1v1h-1V324z M419,324h-1v1h1V324z M420,327h1v1h-1V327z M419,332h-1v1h1
				V332z M419,335h1v1h-1V335z M414,335h-1v1h1V335z M409,332h1v1h-1V332z M413,330h-1v1h1V330z"/>
			<path class="st18" d="M412,337h2v1h1v1h-1v1h1v-1h3v-1h2v1h-1v1h1v-1h2v-1h1v-1h1v1v1h-1v1h1v1v1v1v7h-18v-7v-1h1v-1h-1v-1v-1v-1
				h1v-1h1v1h1v-1h1v1h2v1h1v-1h-1V337z M408,341v1h1v-1H408z M422,338h-1v-1h1V338z M415,338v-1h1v1H415z M407,339v1h1v-1H407z
				 M410,340h-1v-1h1V340z M423,342v-1h-1v1H423z M420,341h1v1h-1V341z M412,343h1v-1h-1V343z M417,340v1h-1v-1H417z M412,340v1h-1
				v-1H412z"/>
		</g>
		<g>
			<path class="st17" d="M422,322h15v1h2v14h1v11h-1h-17v-25V322z"/>
			<path class="st3" d="M431,321h-9v1h1v1h1v-1h2v1h1v-1h3v1h2v-1h4v1h2v1h1v7h-1v4h1v2h1v-2h-1v-3h1v-8v-1h-1v-1h-2v-1h-5v1h-1V321
				z M425,324h1v1h-1V324z M428,326h-1v1h1V326z M431,324h1v1h-1V324z M435,324h-1v1h1V324z M436,327h1v1h-1V327z M435,332h-1v1h1
				V332z M435,335h1v1h-1V335z M430,335h-1v1h1V335z M425,332h1v1h-1V332z M429,330h-1v1h1V330z"/>
			<path class="st18" d="M428,337h2v1h1v1h-1v1h1v-1h3v-1h2v1h-1v1h1v-1h2v-1h1v-1h1v1v1h-1v1h1v1v1v1v7h-18v-7v-1h1v-1h-1v-1v-1v-1
				h1v-1h1v1h1v-1h1v1h2v1h1v-1h-1V337z M424,341v1h1v-1H424z M438,338h-1v-1h1V338z M431,338v-1h1v1H431z M423,339v1h1v-1H423z
				 M426,340h-1v-1h1V340z M439,342v-1h-1v1H439z M436,341h1v1h-1V341z M428,343h1v-1h-1V343z M433,340v1h-1v-1H433z M428,340v1h-1
				v-1H428z"/>
		</g>
		<g>
			<path class="st17" d="M438,322h15v1h2v14h1v11h-1h-17v-25V322z"/>
			<path class="st3" d="M447,321h-9v1h1v1h1v-1h2v1h1v-1h3v1h2v-1h4v1h2v1h1v7h-1v4h1v2h1v-2h-1v-3h1v-8v-1h-1v-1h-2v-1h-5v1h-1V321
				z M441,324h1v1h-1V324z M444,326h-1v1h1V326z M447,324h1v1h-1V324z M451,324h-1v1h1V324z M452,327h1v1h-1V327z M451,332h-1v1h1
				V332z M451,335h1v1h-1V335z M446,335h-1v1h1V335z M441,332h1v1h-1V332z M445,330h-1v1h1V330z"/>
			<path class="st18" d="M444,337h2v1h1v1h-1v1h1v-1h3v-1h2v1h-1v1h1v-1h2v-1h1v-1h1v1v1h-1v1h1v1v1v1v7h-18v-7v-1h1v-1h-1v-1v-1v-1
				h1v-1h1v1h1v-1h1v1h2v1h1v-1h-1V337z M440,341v1h1v-1H440z M454,338h-1v-1h1V338z M447,338v-1h1v1H447z M439,339v1h1v-1H439z
				 M442,340h-1v-1h1V340z M455,342v-1h-1v1H455z M452,341h1v1h-1V341z M444,343h1v-1h-1V343z M449,340v1h-1v-1H449z M444,340v1h-1
				v-1H444z"/>
		</g>
		<g>
			<path class="st17" d="M454,322h15v1h2v14h1v11h-1h-17v-25V322z"/>
			<path class="st3" d="M463,321h-9v1h1v1h1v-1h2v1h1v-1h3v1h2v-1h4v1h2v1h1v7h-1v4h1v2h1v-2h-1v-3h1v-8v-1h-1v-1h-2v-1h-5v1h-1V321
				z M457,324h1v1h-1V324z M460,326h-1v1h1V326z M463,324h1v1h-1V324z M467,324h-1v1h1V324z M468,327h1v1h-1V327z M467,332h-1v1h1
				V332z M467,335h1v1h-1V335z M462,335h-1v1h1V335z M457,332h1v1h-1V332z M461,330h-1v1h1V330z"/>
			<path class="st18" d="M460,337h2v1h1v1h-1v1h1v-1h3v-1h2v1h-1v1h1v-1h2v-1h1v-1h1v1v1h-1v1h1v1v1v1v7h-18v-7v-1h1v-1h-1v-1v-1v-1
				h1v-1h1v1h1v-1h1v1h2v1h1v-1h-1V337z M456,341v1h1v-1H456z M470,338h-1v-1h1V338z M463,338v-1h1v1H463z M455,339v1h1v-1H455z
				 M458,340h-1v-1h1V340z M471,342v-1h-1v1H471z M468,341h1v1h-1V341z M460,343h1v-1h-1V343z M465,340v1h-1v-1H465z M460,340v1h-1
				v-1H460z"/>
		</g>
		<g>
			<path class="st17" d="M470,322h15v1h2v14h1v11h-1h-17v-25V322z"/>
			<path class="st3" d="M479,321h-9v1h1v1h1v-1h2v1h1v-1h3v1h2v-1h4v1h2v1h1v7h-1v4h1v2h1v-2h-1v-3h1v-8v-1h-1v-1h-2v-1h-5v1h-1V321
				z M473,324h1v1h-1V324z M476,326h-1v1h1V326z M479,324h1v1h-1V324z M483,324h-1v1h1V324z M484,327h1v1h-1V327z M483,332h-1v1h1
				V332z M483,335h1v1h-1V335z M478,335h-1v1h1V335z M473,332h1v1h-1V332z M477,330h-1v1h1V330z"/>
			<path class="st18" d="M476,337h2v1h1v1h-1v1h1v-1h3v-1h2v1h-1v1h1v-1h2v-1h1v-1h1v1v1h-1v1h1v1v1v1v7h-18v-7v-1h1v-1h-1v-1v-1v-1
				h1v-1h1v1h1v-1h1v1h2v1h1v-1h-1V337z M472,341v1h1v-1H472z M486,338h-1v-1h1V338z M479,338v-1h1v1H479z M471,339v1h1v-1H471z
				 M474,340h-1v-1h1V340z M487,342v-1h-1v1H487z M484,341h1v1h-1V341z M476,343h1v-1h-1V343z M481,340v1h-1v-1H481z M476,340v1h-1
				v-1H476z"/>
		</g>
		<g>
			<path class="st17" d="M486,322h15v1h2v14h1v11h-1h-17v-25V322z"/>
			<path class="st3" d="M495,321h-9v1h1v1h1v-1h2v1h1v-1h3v1h2v-1h4v1h2v1h1v7h-1v4h1v2h1v-2h-1v-3h1v-8v-1h-1v-1h-2v-1h-5v1h-1V321
				z M489,324h1v1h-1V324z M492,326h-1v1h1V326z M495,324h1v1h-1V324z M499,324h-1v1h1V324z M500,327h1v1h-1V327z M499,332h-1v1h1
				V332z M499,335h1v1h-1V335z M494,335h-1v1h1V335z M489,332h1v1h-1V332z M493,330h-1v1h1V330z"/>
			<path class="st18" d="M492,337h2v1h1v1h-1v1h1v-1h3v-1h2v1h-1v1h1v-1h2v-1h1v-1h1v1v1h-1v1h1v1v1v1v7h-18v-7v-1h1v-1h-1v-1v-1v-1
				h1v-1h1v1h1v-1h1v1h2v1h1v-1h-1V337z M488,341v1h1v-1H488z M502,338h-1v-1h1V338z M495,338v-1h1v1H495z M487,339v1h1v-1H487z
				 M490,340h-1v-1h1V340z M503,342v-1h-1v1H503z M500,341h1v1h-1V341z M492,343h1v-1h-1V343z M497,340v1h-1v-1H497z M492,340v1h-1
				v-1H492z"/>
		</g>
		<g>
			<path class="st17" d="M502,322h15v1h2v14h1v11h-1h-17v-25V322z"/>
			<path class="st3" d="M511,321h-9v1h1v1h1v-1h2v1h1v-1h3v1h2v-1h4v1h2v1h1v7h-1v4h1v2h1v-2h-1v-3h1v-8v-1h-1v-1h-2v-1h-5v1h-1V321
				z M505,324h1v1h-1V324z M508,326h-1v1h1V326z M511,324h1v1h-1V324z M515,324h-1v1h1V324z M516,327h1v1h-1V327z M515,332h-1v1h1
				V332z M515,335h1v1h-1V335z M510,335h-1v1h1V335z M505,332h1v1h-1V332z M509,330h-1v1h1V330z"/>
			<path class="st18" d="M508,337h2v1h1v1h-1v1h1v-1h3v-1h2v1h-1v1h1v-1h2v-1h1v-1h1v1v1h-1v1h1v1v1v1v7h-18v-7v-1h1v-1h-1v-1v-1v-1
				h1v-1h1v1h1v-1h1v1h2v1h1v-1h-1V337z M504,341v1h1v-1H504z M518,338h-1v-1h1V338z M511,338v-1h1v1H511z M503,339v1h1v-1H503z
				 M506,340h-1v-1h1V340z M519,342v-1h-1v1H519z M516,341h1v1h-1V341z M508,343h1v-1h-1V343z M513,340v1h-1v-1H513z M508,340v1h-1
				v-1H508z"/>
		</g>
		<g>
			<path class="st17" d="M518,322h15v1h2v14h1v11h-1h-17v-25V322z"/>
			<path class="st3" d="M527,321h-9v1h1v1h1v-1h2v1h1v-1h3v1h2v-1h4v1h2v1h1v7h-1v4h1v2h1v-2h-1v-3h1v-8v-1h-1v-1h-2v-1h-5v1h-1V321
				z M521,324h1v1h-1V324z M524,326h-1v1h1V326z M527,324h1v1h-1V324z M531,324h-1v1h1V324z M532,327h1v1h-1V327z M531,332h-1v1h1
				V332z M531,335h1v1h-1V335z M526,335h-1v1h1V335z M521,332h1v1h-1V332z M525,330h-1v1h1V330z"/>
			<path class="st18" d="M524,337h2v1h1v1h-1v1h1v-1h3v-1h2v1h-1v1h1v-1h2v-1h1v-1h1v1v1h-1v1h1v1v1v1v7h-18v-7v-1h1v-1h-1v-1v-1v-1
				h1v-1h1v1h1v-1h1v1h2v1h1v-1h-1V337z M520,341v1h1v-1H520z M534,338h-1v-1h1V338z M527,338v-1h1v1H527z M519,339v1h1v-1H519z
				 M522,340h-1v-1h1V340z M535,342v-1h-1v1H535z M532,341h1v1h-1V341z M524,343h1v-1h-1V343z M529,340v1h-1v-1H529z M524,340v1h-1
				v-1H524z"/>
		</g>
		<g>
			<path class="st17" d="M534,322h15v1h2v14h1v11h-1h-17v-25V322z"/>
			<path class="st3" d="M543,321h-9v1h1v1h1v-1h2v1h1v-1h3v1h2v-1h4v1h2v1h1v7h-1v4h1v2h1v-2h-1v-3h1v-8v-1h-1v-1h-2v-1h-5v1h-1V321
				z M537,324h1v1h-1V324z M540,326h-1v1h1V326z M543,324h1v1h-1V324z M547,324h-1v1h1V324z M548,327h1v1h-1V327z M547,332h-1v1h1
				V332z M547,335h1v1h-1V335z M542,335h-1v1h1V335z M537,332h1v1h-1V332z M541,330h-1v1h1V330z"/>
			<path class="st18" d="M540,337h2v1h1v1h-1v1h1v-1h3v-1h2v1h-1v1h1v-1h2v-1h1v-1h1v1v1h-1v1h1v1v1v1v7h-18v-7v-1h1v-1h-1v-1v-1v-1
				h1v-1h1v1h1v-1h1v1h2v1h1v-1h-1V337z M536,341v1h1v-1H536z M550,338h-1v-1h1V338z M543,338v-1h1v1H543z M535,339v1h1v-1H535z
				 M538,340h-1v-1h1V340z M551,342v-1h-1v1H551z M548,341h1v1h-1V341z M540,343h1v-1h-1V343z M545,340v1h-1v-1H545z M540,340v1h-1
				v-1H540z"/>
		</g>
		<g>
			<path class="st17" d="M550,322h15v1h2v14h1v11h-1h-17v-25V322z"/>
			<path class="st3" d="M559,321h-9v1h1v1h1v-1h2v1h1v-1h3v1h2v-1h4v1h2v1h1v7h-1v4h1v2h1v-2h-1v-3h1v-8v-1h-1v-1h-2v-1h-5v1h-1V321
				z M553,324h1v1h-1V324z M556,326h-1v1h1V326z M559,324h1v1h-1V324z M563,324h-1v1h1V324z M564,327h1v1h-1V327z M563,332h-1v1h1
				V332z M563,335h1v1h-1V335z M558,335h-1v1h1V335z M553,332h1v1h-1V332z M557,330h-1v1h1V330z"/>
			<path class="st18" d="M556,337h2v1h1v1h-1v1h1v-1h3v-1h2v1h-1v1h1v-1h2v-1h1v-1h1v1v1h-1v1h1v1v1v1v7h-18v-7v-1h1v-1h-1v-1v-1v-1
				h1v-1h1v1h1v-1h1v1h2v1h1v-1h-1V337z M552,341v1h1v-1H552z M566,338h-1v-1h1V338z M559,338v-1h1v1H559z M551,339v1h1v-1H551z
				 M554,340h-1v-1h1V340z M567,342v-1h-1v1H567z M564,341h1v1h-1V341z M556,343h1v-1h-1V343z M561,340v1h-1v-1H561z M556,340v1h-1
				v-1H556z"/>
		</g>
		<g>
			<path class="st17" d="M566,322h15v1h2v14h1v11h-1h-17v-25V322z"/>
			<path class="st3" d="M575,321h-9v1h1v1h1v-1h2v1h1v-1h3v1h2v-1h4v1h2v1h1v7h-1v4h1v2h1v-2h-1v-3h1v-8v-1h-1v-1h-2v-1h-5v1h-1V321
				z M569,324h1v1h-1V324z M572,326h-1v1h1V326z M575,324h1v1h-1V324z M579,324h-1v1h1V324z M580,327h1v1h-1V327z M579,332h-1v1h1
				V332z M579,335h1v1h-1V335z M574,335h-1v1h1V335z M569,332h1v1h-1V332z M573,330h-1v1h1V330z"/>
			<path class="st18" d="M572,337h2v1h1v1h-1v1h1v-1h3v-1h2v1h-1v1h1v-1h2v-1h1v-1h1v1v1h-1v1h1v1v1v1v7h-18v-7v-1h1v-1h-1v-1v-1v-1
				h1v-1h1v1h1v-1h1v1h2v1h1v-1h-1V337z M568,341v1h1v-1H568z M582,338h-1v-1h1V338z M575,338v-1h1v1H575z M567,339v1h1v-1H567z
				 M570,340h-1v-1h1V340z M583,342v-1h-1v1H583z M580,341h1v1h-1V341z M572,343h1v-1h-1V343z M577,340v1h-1v-1H577z M572,340v1h-1
				v-1H572z"/>
		</g>
		<g>
			<path class="st17" d="M582,322h15v1h2v14h1v11h-1h-17v-25V322z"/>
			<path class="st3" d="M591,321h-9v1h1v1h1v-1h2v1h1v-1h3v1h2v-1h4v1h2v1h1v7h-1v4h1v2h1v-2h-1v-3h1v-8v-1h-1v-1h-2v-1h-5v1h-1V321
				z M585,324h1v1h-1V324z M588,326h-1v1h1V326z M591,324h1v1h-1V324z M595,324h-1v1h1V324z M596,327h1v1h-1V327z M595,332h-1v1h1
				V332z M595,335h1v1h-1V335z M590,335h-1v1h1V335z M585,332h1v1h-1V332z M589,330h-1v1h1V330z"/>
			<path class="st18" d="M588,337h2v1h1v1h-1v1h1v-1h3v-1h2v1h-1v1h1v-1h2v-1h1v-1h1v1v1h-1v1h1v1v1v1v7h-18v-7v-1h1v-1h-1v-1v-1v-1
				h1v-1h1v1h1v-1h1v1h2v1h1v-1h-1V337z M584,341v1h1v-1H584z M598,338h-1v-1h1V338z M591,338v-1h1v1H591z M583,339v1h1v-1H583z
				 M586,340h-1v-1h1V340z M599,342v-1h-1v1H599z M596,341h1v1h-1V341z M588,343h1v-1h-1V343z M593,340v1h-1v-1H593z M588,340v1h-1
				v-1H588z"/>
		</g>
		<g>
			<path class="st17" d="M598,322h15v1h2v14h1v11h-1h-17v-25V322z"/>
			<path class="st3" d="M607,321h-9v1h1v1h1v-1h2v1h1v-1h3v1h2v-1h4v1h2v1h1v7h-1v4h1v2h1v-2h-1v-3h1v-8v-1h-1v-1h-2v-1h-5v1h-1V321
				z M601,324h1v1h-1V324z M604,326h-1v1h1V326z M607,324h1v1h-1V324z M611,324h-1v1h1V324z M612,327h1v1h-1V327z M611,332h-1v1h1
				V332z M611,335h1v1h-1V335z M606,335h-1v1h1V335z M601,332h1v1h-1V332z M605,330h-1v1h1V330z"/>
			<path class="st18" d="M604,337h2v1h1v1h-1v1h1v-1h3v-1h2v1h-1v1h1v-1h2v-1h1v-1h1v1v1h-1v1h1v1v1v1v7h-18v-7v-1h1v-1h-1v-1v-1v-1
				h1v-1h1v1h1v-1h1v1h2v1h1v-1h-1V337z M600,341v1h1v-1H600z M614,338h-1v-1h1V338z M607,338v-1h1v1H607z M599,339v1h1v-1H599z
				 M602,340h-1v-1h1V340z M615,342v-1h-1v1H615z M612,341h1v1h-1V341z M604,343h1v-1h-1V343z M609,340v1h-1v-1H609z M604,340v1h-1
				v-1H604z"/>
		</g>
		<g>
			<path class="st17" d="M613,322h15v1h2v14h1v11h-1h-17v-25V322z"/>
			<path class="st3" d="M622,321h-9v1h1v1h1v-1h2v1h1v-1h3v1h2v-1h4v1h2v1h1v7h-1v4h1v2h1v-2h-1v-3h1v-8v-1h-1v-1h-2v-1h-5v1h-1V321
				z M616,324h1v1h-1V324z M619,326h-1v1h1V326z M622,324h1v1h-1V324z M626,324h-1v1h1V324z M627,327h1v1h-1V327z M626,332h-1v1h1
				V332z M626,335h1v1h-1V335z M621,335h-1v1h1V335z M616,332h1v1h-1V332z M620,330h-1v1h1V330z"/>
			<path class="st18" d="M619,337h2v1h1v1h-1v1h1v-1h3v-1h2v1h-1v1h1v-1h2v-1h1v-1h1v1v1h-1v1h1v1v1v1v7h-18v-7v-1h1v-1h-1v-1v-1v-1
				h1v-1h1v1h1v-1h1v1h2v1h1v-1h-1V337z M615,341v1h1v-1H615z M629,338h-1v-1h1V338z M622,338v-1h1v1H622z M614,339v1h1v-1H614z
				 M617,340h-1v-1h1V340z M630,342v-1h-1v1H630z M627,341h1v1h-1V341z M619,343h1v-1h-1V343z M624,340v1h-1v-1H624z M619,340v1h-1
				v-1H619z"/>
		</g>
		<g>
			<path class="st17" d="M629,322h15v1h2v14h1v11h-1h-17v-25V322z"/>
			<path class="st3" d="M638,321h-9v1h1v1h1v-1h2v1h1v-1h3v1h2v-1h4v1h2v1h1v7h-1v4h1v2h1v-2h-1v-3h1v-8v-1h-1v-1h-2v-1h-5v1h-1V321
				z M632,324h1v1h-1V324z M635,326h-1v1h1V326z M638,324h1v1h-1V324z M642,324h-1v1h1V324z M643,327h1v1h-1V327z M642,332h-1v1h1
				V332z M642,335h1v1h-1V335z M637,335h-1v1h1V335z M632,332h1v1h-1V332z M636,330h-1v1h1V330z"/>
			<path class="st18" d="M635,337h2v1h1v1h-1v1h1v-1h3v-1h2v1h-1v1h1v-1h2v-1h1v-1h1v1v1h-1v1h1v1v1v1v7h-18v-7v-1h1v-1h-1v-1v-1v-1
				h1v-1h1v1h1v-1h1v1h2v1h1v-1h-1V337z M631,341v1h1v-1H631z M645,338h-1v-1h1V338z M638,338v-1h1v1H638z M630,339v1h1v-1H630z
				 M633,340h-1v-1h1V340z M646,342v-1h-1v1H646z M643,341h1v1h-1V341z M635,343h1v-1h-1V343z M640,340v1h-1v-1H640z M635,340v1h-1
				v-1H635z"/>
		</g>
		<g>
			<path class="st17" d="M645,322h15v1h2v14h1v11h-1h-17v-25V322z"/>
			<path class="st3" d="M654,321h-9v1h1v1h1v-1h2v1h1v-1h3v1h2v-1h4v1h2v1h1v7h-1v4h1v2h1v-2h-1v-3h1v-8v-1h-1v-1h-2v-1h-5v1h-1V321
				z M648,324h1v1h-1V324z M651,326h-1v1h1V326z M654,324h1v1h-1V324z M658,324h-1v1h1V324z M659,327h1v1h-1V327z M658,332h-1v1h1
				V332z M658,335h1v1h-1V335z M653,335h-1v1h1V335z M648,332h1v1h-1V332z M652,330h-1v1h1V330z"/>
			<path class="st18" d="M651,337h2v1h1v1h-1v1h1v-1h3v-1h2v1h-1v1h1v-1h2v-1h1v-1h1v1v1h-1v1h1v1v1v1v7h-18v-7v-1h1v-1h-1v-1v-1v-1
				h1v-1h1v1h1v-1h1v1h2v1h1v-1h-1V337z M647,341v1h1v-1H647z M661,338h-1v-1h1V338z M654,338v-1h1v1H654z M646,339v1h1v-1H646z
				 M649,340h-1v-1h1V340z M662,342v-1h-1v1H662z M659,341h1v1h-1V341z M651,343h1v-1h-1V343z M656,340v1h-1v-1H656z M651,340v1h-1
				v-1H651z"/>
		</g>
		<g>
			<path class="st17" d="M661,322h15v1h2v14h1v11h-1h-17v-25V322z"/>
			<path class="st3" d="M670,321h-9v1h1v1h1v-1h2v1h1v-1h3v1h2v-1h4v1h2v1h1v7h-1v4h1v2h1v-2h-1v-3h1v-8v-1h-1v-1h-2v-1h-5v1h-1V321
				z M664,324h1v1h-1V324z M667,326h-1v1h1V326z M670,324h1v1h-1V324z M674,324h-1v1h1V324z M675,327h1v1h-1V327z M674,332h-1v1h1
				V332z M674,335h1v1h-1V335z M669,335h-1v1h1V335z M664,332h1v1h-1V332z M668,330h-1v1h1V330z"/>
			<path class="st18" d="M667,337h2v1h1v1h-1v1h1v-1h3v-1h2v1h-1v1h1v-1h2v-1h1v-1h1v1v1h-1v1h1v1v1v1v7h-18v-7v-1h1v-1h-1v-1v-1v-1
				h1v-1h1v1h1v-1h1v1h2v1h1v-1h-1V337z M663,341v1h1v-1H663z M677,338h-1v-1h1V338z M670,338v-1h1v1H670z M662,339v1h1v-1H662z
				 M665,340h-1v-1h1V340z M678,342v-1h-1v1H678z M675,341h1v1h-1V341z M667,343h1v-1h-1V343z M672,340v1h-1v-1H672z M667,340v1h-1
				v-1H667z"/>
		</g>
		<g>
			<path class="st17" d="M677,322h15v1h2v14h1v11h-1h-17v-25V322z"/>
			<path class="st3" d="M686,321h-9v1h1v1h1v-1h2v1h1v-1h3v1h2v-1h4v1h2v1h1v7h-1v4h1v2h1v-2h-1v-3h1v-8v-1h-1v-1h-2v-1h-5v1h-1V321
				z M680,324h1v1h-1V324z M683,326h-1v1h1V326z M686,324h1v1h-1V324z M690,324h-1v1h1V324z M691,327h1v1h-1V327z M690,332h-1v1h1
				V332z M690,335h1v1h-1V335z M685,335h-1v1h1V335z M680,332h1v1h-1V332z M684,330h-1v1h1V330z"/>
			<path class="st18" d="M683,337h2v1h1v1h-1v1h1v-1h3v-1h2v1h-1v1h1v-1h2v-1h1v-1h1v1v1h-1v1h1v1v1v1v7h-18v-7v-1h1v-1h-1v-1v-1v-1
				h1v-1h1v1h1v-1h1v1h2v1h1v-1h-1V337z M679,341v1h1v-1H679z M693,338h-1v-1h1V338z M686,338v-1h1v1H686z M678,339v1h1v-1H678z
				 M681,340h-1v-1h1V340z M694,342v-1h-1v1H694z M691,341h1v1h-1V341z M683,343h1v-1h-1V343z M688,340v1h-1v-1H688z M683,340v1h-1
				v-1H683z"/>
		</g>
		<g>
			<path class="st17" d="M693,322h15v1h2v14h1v11h-1h-17v-25V322z"/>
			<path class="st3" d="M702,321h-9v1h1v1h1v-1h2v1h1v-1h3v1h2v-1h4v1h2v1h1v7h-1v4h1v2h1v-2h-1v-3h1v-8v-1h-1v-1h-2v-1h-5v1h-1V321
				z M696,324h1v1h-1V324z M699,326h-1v1h1V326z M702,324h1v1h-1V324z M706,324h-1v1h1V324z M707,327h1v1h-1V327z M706,332h-1v1h1
				V332z M706,335h1v1h-1V335z M701,335h-1v1h1V335z M696,332h1v1h-1V332z M700,330h-1v1h1V330z"/>
			<path class="st18" d="M699,337h2v1h1v1h-1v1h1v-1h3v-1h2v1h-1v1h1v-1h2v-1h1v-1h1v1v1h-1v1h1v1v1v1v7h-18v-7v-1h1v-1h-1v-1v-1v-1
				h1v-1h1v1h1v-1h1v1h2v1h1v-1h-1V337z M695,341v1h1v-1H695z M709,338h-1v-1h1V338z M702,338v-1h1v1H702z M694,339v1h1v-1H694z
				 M697,340h-1v-1h1V340z M710,342v-1h-1v1H710z M707,341h1v1h-1V341z M699,343h1v-1h-1V343z M704,340v1h-1v-1H704z M699,340v1h-1
				v-1H699z"/>
		</g>
		<g>
			<path class="st17" d="M709,322h15v1h2v14h1v11h-1h-17v-25V322z"/>
			<path class="st3" d="M718,321h-9v1h1v1h1v-1h2v1h1v-1h3v1h2v-1h4v1h2v1h1v7h-1v4h1v2h1v-2h-1v-3h1v-8v-1h-1v-1h-2v-1h-5v1h-1V321
				z M712,324h1v1h-1V324z M715,326h-1v1h1V326z M718,324h1v1h-1V324z M722,324h-1v1h1V324z M723,327h1v1h-1V327z M722,332h-1v1h1
				V332z M722,335h1v1h-1V335z M717,335h-1v1h1V335z M712,332h1v1h-1V332z M716,330h-1v1h1V330z"/>
			<path class="st18" d="M715,337h2v1h1v1h-1v1h1v-1h3v-1h2v1h-1v1h1v-1h2v-1h1v-1h1v1v1h-1v1h1v1v1v1v7h-18v-7v-1h1v-1h-1v-1v-1v-1
				h1v-1h1v1h1v-1h1v1h2v1h1v-1h-1V337z M711,341v1h1v-1H711z M725,338h-1v-1h1V338z M718,338v-1h1v1H718z M710,339v1h1v-1H710z
				 M713,340h-1v-1h1V340z M726,342v-1h-1v1H726z M723,341h1v1h-1V341z M715,343h1v-1h-1V343z M720,340v1h-1v-1H720z M715,340v1h-1
				v-1H715z"/>
		</g>
		<g>
			<path class="st17" d="M725,322h15v1h2v14h1v11h-1h-17v-25V322z"/>
			<path class="st3" d="M734,321h-9v1h1v1h1v-1h2v1h1v-1h3v1h2v-1h4v1h2v1h1v7h-1v4h1v2h1v-2h-1v-3h1v-8v-1h-1v-1h-2v-1h-5v1h-1V321
				z M728,324h1v1h-1V324z M731,326h-1v1h1V326z M734,324h1v1h-1V324z M738,324h-1v1h1V324z M739,327h1v1h-1V327z M738,332h-1v1h1
				V332z M738,335h1v1h-1V335z M733,335h-1v1h1V335z M728,332h1v1h-1V332z M732,330h-1v1h1V330z"/>
			<path class="st18" d="M731,337h2v1h1v1h-1v1h1v-1h3v-1h2v1h-1v1h1v-1h2v-1h1v-1h1v1v1h-1v1h1v1v1v1v7h-18v-7v-1h1v-1h-1v-1v-1v-1
				h1v-1h1v1h1v-1h1v1h2v1h1v-1h-1V337z M727,341v1h1v-1H727z M741,338h-1v-1h1V338z M734,338v-1h1v1H734z M726,339v1h1v-1H726z
				 M729,340h-1v-1h1V340z M742,342v-1h-1v1H742z M739,341h1v1h-1V341z M731,343h1v-1h-1V343z M736,340v1h-1v-1H736z M731,340v1h-1
				v-1H731z"/>
		</g>
	</g>
	<g id="Dirt">
		<g>
			<path class="st19" d="M-10,343H5v1h2v14h1v11H7h-17v-25V343z"/>
			<path class="st3" d="M-1,342h-9v1h1v1h1v-1h2v1h1v-1h3v1h2v-1h4v1h2v1h1v7H6v4h1v2h1v-2H7v-3h1v-8v-1H7v-1H5v-1H0v1h-1V342z
				 M-7,345h1v1h-1V345z M-4,347h-1v1h1V347z M-1,345h1v1h-1V345z M3,345H2v1h1V345z M4,348h1v1H4V348z M3,353H2v1h1V353z M3,356h1
				v1H3V356z M-2,356h-1v1h1V356z M-7,353h1v1h-1V353z M-3,351h-1v1h1V351z M-7,358h1v1h-1V358z M1,360H0v1h1V360z M4,361h1v1H4V361
				z M-6,362h-1v1h1V362z M-1,365h1v1h-1V365z M5,366H4v1h1V366z M-7,366h1v1h-1V366z M-3,361h-1v1h1V361z"/>
		</g>
		<g>
			<path class="st19" d="M6,343h15v1h2v14h1v11h-1H6v-25V343z"/>
			<path class="st3" d="M15,342H6v1h1v1h1v-1h2v1h1v-1h3v1h2v-1h4v1h2v1h1v7h-1v4h1v2h1v-2h-1v-3h1v-8v-1h-1v-1h-2v-1h-5v1h-1V342z
				 M9,345h1v1H9V345z M12,347h-1v1h1V347z M15,345h1v1h-1V345z M19,345h-1v1h1V345z M20,348h1v1h-1V348z M19,353h-1v1h1V353z
				 M19,356h1v1h-1V356z M14,356h-1v1h1V356z M9,353h1v1H9V353z M13,351h-1v1h1V351z M9,358h1v1H9V358z M17,360h-1v1h1V360z M20,361
				h1v1h-1V361z M10,362H9v1h1V362z M15,365h1v1h-1V365z M21,366h-1v1h1V366z M9,366h1v1H9V366z M13,361h-1v1h1V361z"/>
		</g>
		<g>
			<path class="st19" d="M22,343h15v1h2v14h1v11h-1H22v-25V343z"/>
			<path class="st3" d="M31,342h-9v1h1v1h1v-1h2v1h1v-1h3v1h2v-1h4v1h2v1h1v7h-1v4h1v2h1v-2h-1v-3h1v-8v-1h-1v-1h-2v-1h-5v1h-1V342z
				 M25,345h1v1h-1V345z M28,347h-1v1h1V347z M31,345h1v1h-1V345z M35,345h-1v1h1V345z M36,348h1v1h-1V348z M35,353h-1v1h1V353z
				 M35,356h1v1h-1V356z M30,356h-1v1h1V356z M25,353h1v1h-1V353z M29,351h-1v1h1V351z M25,358h1v1h-1V358z M33,360h-1v1h1V360z
				 M36,361h1v1h-1V361z M26,362h-1v1h1V362z M31,365h1v1h-1V365z M37,366h-1v1h1V366z M25,366h1v1h-1V366z M29,361h-1v1h1V361z"/>
		</g>
		<g>
			<path class="st19" d="M38,343h15v1h2v14h1v11h-1H38v-25V343z"/>
			<path class="st3" d="M47,342h-9v1h1v1h1v-1h2v1h1v-1h3v1h2v-1h4v1h2v1h1v7h-1v4h1v2h1v-2h-1v-3h1v-8v-1h-1v-1h-2v-1h-5v1h-1V342z
				 M41,345h1v1h-1V345z M44,347h-1v1h1V347z M47,345h1v1h-1V345z M51,345h-1v1h1V345z M52,348h1v1h-1V348z M51,353h-1v1h1V353z
				 M51,356h1v1h-1V356z M46,356h-1v1h1V356z M41,353h1v1h-1V353z M45,351h-1v1h1V351z M41,358h1v1h-1V358z M49,360h-1v1h1V360z
				 M52,361h1v1h-1V361z M42,362h-1v1h1V362z M47,365h1v1h-1V365z M53,366h-1v1h1V366z M41,366h1v1h-1V366z M45,361h-1v1h1V361z"/>
		</g>
		<g>
			<path class="st19" d="M54,343h15v1h2v14h1v11h-1H54v-25V343z"/>
			<path class="st3" d="M63,342h-9v1h1v1h1v-1h2v1h1v-1h3v1h2v-1h4v1h2v1h1v7h-1v4h1v2h1v-2h-1v-3h1v-8v-1h-1v-1h-2v-1h-5v1h-1V342z
				 M57,345h1v1h-1V345z M60,347h-1v1h1V347z M63,345h1v1h-1V345z M67,345h-1v1h1V345z M68,348h1v1h-1V348z M67,353h-1v1h1V353z
				 M67,356h1v1h-1V356z M62,356h-1v1h1V356z M57,353h1v1h-1V353z M61,351h-1v1h1V351z M57,358h1v1h-1V358z M65,360h-1v1h1V360z
				 M68,361h1v1h-1V361z M58,362h-1v1h1V362z M63,365h1v1h-1V365z M69,366h-1v1h1V366z M57,366h1v1h-1V366z M61,361h-1v1h1V361z"/>
		</g>
		<g>
			<path class="st19" d="M70,343h15v1h2v14h1v11h-1H70v-25V343z"/>
			<path class="st3" d="M79,342h-9v1h1v1h1v-1h2v1h1v-1h3v1h2v-1h4v1h2v1h1v7h-1v4h1v2h1v-2h-1v-3h1v-8v-1h-1v-1h-2v-1h-5v1h-1V342z
				 M73,345h1v1h-1V345z M76,347h-1v1h1V347z M79,345h1v1h-1V345z M83,345h-1v1h1V345z M84,348h1v1h-1V348z M83,353h-1v1h1V353z
				 M83,356h1v1h-1V356z M78,356h-1v1h1V356z M73,353h1v1h-1V353z M77,351h-1v1h1V351z M73,358h1v1h-1V358z M81,360h-1v1h1V360z
				 M84,361h1v1h-1V361z M74,362h-1v1h1V362z M79,365h1v1h-1V365z M85,366h-1v1h1V366z M73,366h1v1h-1V366z M77,361h-1v1h1V361z"/>
		</g>
		<g>
			<path class="st19" d="M86,343h15v1h2v14h1v11h-1H86v-25V343z"/>
			<path class="st3" d="M95,342h-9v1h1v1h1v-1h2v1h1v-1h3v1h2v-1h4v1h2v1h1v7h-1v4h1v2h1v-2h-1v-3h1v-8v-1h-1v-1h-2v-1h-5v1h-1V342z
				 M89,345h1v1h-1V345z M92,347h-1v1h1V347z M95,345h1v1h-1V345z M99,345h-1v1h1V345z M100,348h1v1h-1V348z M99,353h-1v1h1V353z
				 M99,356h1v1h-1V356z M94,356h-1v1h1V356z M89,353h1v1h-1V353z M93,351h-1v1h1V351z M89,358h1v1h-1V358z M97,360h-1v1h1V360z
				 M100,361h1v1h-1V361z M90,362h-1v1h1V362z M95,365h1v1h-1V365z M101,366h-1v1h1V366z M89,366h1v1h-1V366z M93,361h-1v1h1V361z"
				/>
		</g>
		<g>
			<path class="st19" d="M102,343h15v1h2v14h1v11h-1h-17v-25V343z"/>
			<path class="st3" d="M111,342h-9v1h1v1h1v-1h2v1h1v-1h3v1h2v-1h4v1h2v1h1v7h-1v4h1v2h1v-2h-1v-3h1v-8v-1h-1v-1h-2v-1h-5v1h-1V342
				z M105,345h1v1h-1V345z M108,347h-1v1h1V347z M111,345h1v1h-1V345z M115,345h-1v1h1V345z M116,348h1v1h-1V348z M115,353h-1v1h1
				V353z M115,356h1v1h-1V356z M110,356h-1v1h1V356z M105,353h1v1h-1V353z M109,351h-1v1h1V351z M105,358h1v1h-1V358z M113,360h-1v1
				h1V360z M116,361h1v1h-1V361z M106,362h-1v1h1V362z M111,365h1v1h-1V365z M117,366h-1v1h1V366z M105,366h1v1h-1V366z M109,361h-1
				v1h1V361z"/>
		</g>
		<g>
			<path class="st19" d="M118,343h15v1h2v14h1v11h-1h-17v-25V343z"/>
			<path class="st3" d="M127,342h-9v1h1v1h1v-1h2v1h1v-1h3v1h2v-1h4v1h2v1h1v7h-1v4h1v2h1v-2h-1v-3h1v-8v-1h-1v-1h-2v-1h-5v1h-1V342
				z M121,345h1v1h-1V345z M124,347h-1v1h1V347z M127,345h1v1h-1V345z M131,345h-1v1h1V345z M132,348h1v1h-1V348z M131,353h-1v1h1
				V353z M131,356h1v1h-1V356z M126,356h-1v1h1V356z M121,353h1v1h-1V353z M125,351h-1v1h1V351z M121,358h1v1h-1V358z M129,360h-1v1
				h1V360z M132,361h1v1h-1V361z M122,362h-1v1h1V362z M127,365h1v1h-1V365z M133,366h-1v1h1V366z M121,366h1v1h-1V366z M125,361h-1
				v1h1V361z"/>
		</g>
		<g>
			<path class="st19" d="M134,343h15v1h2v14h1v11h-1h-17v-25V343z"/>
			<path class="st3" d="M143,342h-9v1h1v1h1v-1h2v1h1v-1h3v1h2v-1h4v1h2v1h1v7h-1v4h1v2h1v-2h-1v-3h1v-8v-1h-1v-1h-2v-1h-5v1h-1V342
				z M137,345h1v1h-1V345z M140,347h-1v1h1V347z M143,345h1v1h-1V345z M147,345h-1v1h1V345z M148,348h1v1h-1V348z M147,353h-1v1h1
				V353z M147,356h1v1h-1V356z M142,356h-1v1h1V356z M137,353h1v1h-1V353z M141,351h-1v1h1V351z M137,358h1v1h-1V358z M145,360h-1v1
				h1V360z M148,361h1v1h-1V361z M138,362h-1v1h1V362z M143,365h1v1h-1V365z M149,366h-1v1h1V366z M137,366h1v1h-1V366z M141,361h-1
				v1h1V361z"/>
		</g>
		<g>
			<path class="st19" d="M150,343h15v1h2v14h1v11h-1h-17v-25V343z"/>
			<path class="st3" d="M159,342h-9v1h1v1h1v-1h2v1h1v-1h3v1h2v-1h4v1h2v1h1v7h-1v4h1v2h1v-2h-1v-3h1v-8v-1h-1v-1h-2v-1h-5v1h-1V342
				z M153,345h1v1h-1V345z M156,347h-1v1h1V347z M159,345h1v1h-1V345z M163,345h-1v1h1V345z M164,348h1v1h-1V348z M163,353h-1v1h1
				V353z M163,356h1v1h-1V356z M158,356h-1v1h1V356z M153,353h1v1h-1V353z M157,351h-1v1h1V351z M153,358h1v1h-1V358z M161,360h-1v1
				h1V360z M164,361h1v1h-1V361z M154,362h-1v1h1V362z M159,365h1v1h-1V365z M165,366h-1v1h1V366z M153,366h1v1h-1V366z M157,361h-1
				v1h1V361z"/>
		</g>
		<g>
			<path class="st19" d="M166,343h15v1h2v14h1v11h-1h-17v-25V343z"/>
			<path class="st3" d="M175,342h-9v1h1v1h1v-1h2v1h1v-1h3v1h2v-1h4v1h2v1h1v7h-1v4h1v2h1v-2h-1v-3h1v-8v-1h-1v-1h-2v-1h-5v1h-1V342
				z M169,345h1v1h-1V345z M172,347h-1v1h1V347z M175,345h1v1h-1V345z M179,345h-1v1h1V345z M180,348h1v1h-1V348z M179,353h-1v1h1
				V353z M179,356h1v1h-1V356z M174,356h-1v1h1V356z M169,353h1v1h-1V353z M173,351h-1v1h1V351z M169,358h1v1h-1V358z M177,360h-1v1
				h1V360z M180,361h1v1h-1V361z M170,362h-1v1h1V362z M175,365h1v1h-1V365z M181,366h-1v1h1V366z M169,366h1v1h-1V366z M173,361h-1
				v1h1V361z"/>
		</g>
		<g>
			<path class="st19" d="M182,343h15v1h2v14h1v11h-1h-17v-25V343z"/>
			<path class="st3" d="M191,342h-9v1h1v1h1v-1h2v1h1v-1h3v1h2v-1h4v1h2v1h1v7h-1v4h1v2h1v-2h-1v-3h1v-8v-1h-1v-1h-2v-1h-5v1h-1V342
				z M185,345h1v1h-1V345z M188,347h-1v1h1V347z M191,345h1v1h-1V345z M195,345h-1v1h1V345z M196,348h1v1h-1V348z M195,353h-1v1h1
				V353z M195,356h1v1h-1V356z M190,356h-1v1h1V356z M185,353h1v1h-1V353z M189,351h-1v1h1V351z M185,358h1v1h-1V358z M193,360h-1v1
				h1V360z M196,361h1v1h-1V361z M186,362h-1v1h1V362z M191,365h1v1h-1V365z M197,366h-1v1h1V366z M185,366h1v1h-1V366z M189,361h-1
				v1h1V361z"/>
		</g>
		<g>
			<path class="st19" d="M198,343h15v1h2v14h1v11h-1h-17v-25V343z"/>
			<path class="st3" d="M207,342h-9v1h1v1h1v-1h2v1h1v-1h3v1h2v-1h4v1h2v1h1v7h-1v4h1v2h1v-2h-1v-3h1v-8v-1h-1v-1h-2v-1h-5v1h-1V342
				z M201,345h1v1h-1V345z M204,347h-1v1h1V347z M207,345h1v1h-1V345z M211,345h-1v1h1V345z M212,348h1v1h-1V348z M211,353h-1v1h1
				V353z M211,356h1v1h-1V356z M206,356h-1v1h1V356z M201,353h1v1h-1V353z M205,351h-1v1h1V351z M201,358h1v1h-1V358z M209,360h-1v1
				h1V360z M212,361h1v1h-1V361z M202,362h-1v1h1V362z M207,365h1v1h-1V365z M213,366h-1v1h1V366z M201,366h1v1h-1V366z M205,361h-1
				v1h1V361z"/>
		</g>
		<g>
			<path class="st19" d="M214,343h15v1h2v14h1v11h-1h-17v-25V343z"/>
			<path class="st3" d="M223,342h-9v1h1v1h1v-1h2v1h1v-1h3v1h2v-1h4v1h2v1h1v7h-1v4h1v2h1v-2h-1v-3h1v-8v-1h-1v-1h-2v-1h-5v1h-1V342
				z M217,345h1v1h-1V345z M220,347h-1v1h1V347z M223,345h1v1h-1V345z M227,345h-1v1h1V345z M228,348h1v1h-1V348z M227,353h-1v1h1
				V353z M227,356h1v1h-1V356z M222,356h-1v1h1V356z M217,353h1v1h-1V353z M221,351h-1v1h1V351z M217,358h1v1h-1V358z M225,360h-1v1
				h1V360z M228,361h1v1h-1V361z M218,362h-1v1h1V362z M223,365h1v1h-1V365z M229,366h-1v1h1V366z M217,366h1v1h-1V366z M221,361h-1
				v1h1V361z"/>
		</g>
		<g>
			<path class="st19" d="M230,343h15v1h2v14h1v11h-1h-17v-25V343z"/>
			<path class="st3" d="M239,342h-9v1h1v1h1v-1h2v1h1v-1h3v1h2v-1h4v1h2v1h1v7h-1v4h1v2h1v-2h-1v-3h1v-8v-1h-1v-1h-2v-1h-5v1h-1V342
				z M233,345h1v1h-1V345z M236,347h-1v1h1V347z M239,345h1v1h-1V345z M243,345h-1v1h1V345z M244,348h1v1h-1V348z M243,353h-1v1h1
				V353z M243,356h1v1h-1V356z M238,356h-1v1h1V356z M233,353h1v1h-1V353z M237,351h-1v1h1V351z M233,358h1v1h-1V358z M241,360h-1v1
				h1V360z M244,361h1v1h-1V361z M234,362h-1v1h1V362z M239,365h1v1h-1V365z M245,366h-1v1h1V366z M233,366h1v1h-1V366z M237,361h-1
				v1h1V361z"/>
		</g>
		<g>
			<path class="st19" d="M246,343h15v1h2v14h1v11h-1h-17v-25V343z"/>
			<path class="st3" d="M255,342h-9v1h1v1h1v-1h2v1h1v-1h3v1h2v-1h4v1h2v1h1v7h-1v4h1v2h1v-2h-1v-3h1v-8v-1h-1v-1h-2v-1h-5v1h-1V342
				z M249,345h1v1h-1V345z M252,347h-1v1h1V347z M255,345h1v1h-1V345z M259,345h-1v1h1V345z M260,348h1v1h-1V348z M259,353h-1v1h1
				V353z M259,356h1v1h-1V356z M254,356h-1v1h1V356z M249,353h1v1h-1V353z M253,351h-1v1h1V351z M249,358h1v1h-1V358z M257,360h-1v1
				h1V360z M260,361h1v1h-1V361z M250,362h-1v1h1V362z M255,365h1v1h-1V365z M261,366h-1v1h1V366z M249,366h1v1h-1V366z M253,361h-1
				v1h1V361z"/>
		</g>
		<g>
			<path class="st19" d="M262,343h15v1h2v14h1v11h-1h-17v-25V343z"/>
			<path class="st3" d="M271,342h-9v1h1v1h1v-1h2v1h1v-1h3v1h2v-1h4v1h2v1h1v7h-1v4h1v2h1v-2h-1v-3h1v-8v-1h-1v-1h-2v-1h-5v1h-1V342
				z M265,345h1v1h-1V345z M268,347h-1v1h1V347z M271,345h1v1h-1V345z M275,345h-1v1h1V345z M276,348h1v1h-1V348z M275,353h-1v1h1
				V353z M275,356h1v1h-1V356z M270,356h-1v1h1V356z M265,353h1v1h-1V353z M269,351h-1v1h1V351z M265,358h1v1h-1V358z M273,360h-1v1
				h1V360z M276,361h1v1h-1V361z M266,362h-1v1h1V362z M271,365h1v1h-1V365z M277,366h-1v1h1V366z M265,366h1v1h-1V366z M269,361h-1
				v1h1V361z"/>
		</g>
		<g>
			<path class="st19" d="M278,343h15v1h2v14h1v11h-1h-17v-25V343z"/>
			<path class="st3" d="M287,342h-9v1h1v1h1v-1h2v1h1v-1h3v1h2v-1h4v1h2v1h1v7h-1v4h1v2h1v-2h-1v-3h1v-8v-1h-1v-1h-2v-1h-5v1h-1V342
				z M281,345h1v1h-1V345z M284,347h-1v1h1V347z M287,345h1v1h-1V345z M291,345h-1v1h1V345z M292,348h1v1h-1V348z M291,353h-1v1h1
				V353z M291,356h1v1h-1V356z M286,356h-1v1h1V356z M281,353h1v1h-1V353z M285,351h-1v1h1V351z M281,358h1v1h-1V358z M289,360h-1v1
				h1V360z M292,361h1v1h-1V361z M282,362h-1v1h1V362z M287,365h1v1h-1V365z M293,366h-1v1h1V366z M281,366h1v1h-1V366z M285,361h-1
				v1h1V361z"/>
		</g>
		<g>
			<path class="st19" d="M294,343h15v1h2v14h1v11h-1h-17v-25V343z"/>
			<path class="st3" d="M303,342h-9v1h1v1h1v-1h2v1h1v-1h3v1h2v-1h4v1h2v1h1v7h-1v4h1v2h1v-2h-1v-3h1v-8v-1h-1v-1h-2v-1h-5v1h-1V342
				z M297,345h1v1h-1V345z M300,347h-1v1h1V347z M303,345h1v1h-1V345z M307,345h-1v1h1V345z M308,348h1v1h-1V348z M307,353h-1v1h1
				V353z M307,356h1v1h-1V356z M302,356h-1v1h1V356z M297,353h1v1h-1V353z M301,351h-1v1h1V351z M297,358h1v1h-1V358z M305,360h-1v1
				h1V360z M308,361h1v1h-1V361z M298,362h-1v1h1V362z M303,365h1v1h-1V365z M309,366h-1v1h1V366z M297,366h1v1h-1V366z M301,361h-1
				v1h1V361z"/>
		</g>
		<g>
			<path class="st19" d="M310,343h15v1h2v14h1v11h-1h-17v-25V343z"/>
			<path class="st3" d="M319,342h-9v1h1v1h1v-1h2v1h1v-1h3v1h2v-1h4v1h2v1h1v7h-1v4h1v2h1v-2h-1v-3h1v-8v-1h-1v-1h-2v-1h-5v1h-1V342
				z M313,345h1v1h-1V345z M316,347h-1v1h1V347z M319,345h1v1h-1V345z M323,345h-1v1h1V345z M324,348h1v1h-1V348z M323,353h-1v1h1
				V353z M323,356h1v1h-1V356z M318,356h-1v1h1V356z M313,353h1v1h-1V353z M317,351h-1v1h1V351z M313,358h1v1h-1V358z M321,360h-1v1
				h1V360z M324,361h1v1h-1V361z M314,362h-1v1h1V362z M319,365h1v1h-1V365z M325,366h-1v1h1V366z M313,366h1v1h-1V366z M317,361h-1
				v1h1V361z"/>
		</g>
		<g>
			<path class="st19" d="M326,343h15v1h2v14h1v11h-1h-17v-25V343z"/>
			<path class="st3" d="M335,342h-9v1h1v1h1v-1h2v1h1v-1h3v1h2v-1h4v1h2v1h1v7h-1v4h1v2h1v-2h-1v-3h1v-8v-1h-1v-1h-2v-1h-5v1h-1V342
				z M329,345h1v1h-1V345z M332,347h-1v1h1V347z M335,345h1v1h-1V345z M339,345h-1v1h1V345z M340,348h1v1h-1V348z M339,353h-1v1h1
				V353z M339,356h1v1h-1V356z M334,356h-1v1h1V356z M329,353h1v1h-1V353z M333,351h-1v1h1V351z M329,358h1v1h-1V358z M337,360h-1v1
				h1V360z M340,361h1v1h-1V361z M330,362h-1v1h1V362z M335,365h1v1h-1V365z M341,366h-1v1h1V366z M329,366h1v1h-1V366z M333,361h-1
				v1h1V361z"/>
		</g>
		<g>
			<path class="st19" d="M342,343h15v1h2v14h1v11h-1h-17v-25V343z"/>
			<path class="st3" d="M351,342h-9v1h1v1h1v-1h2v1h1v-1h3v1h2v-1h4v1h2v1h1v7h-1v4h1v2h1v-2h-1v-3h1v-8v-1h-1v-1h-2v-1h-5v1h-1V342
				z M345,345h1v1h-1V345z M348,347h-1v1h1V347z M351,345h1v1h-1V345z M355,345h-1v1h1V345z M356,348h1v1h-1V348z M355,353h-1v1h1
				V353z M355,356h1v1h-1V356z M350,356h-1v1h1V356z M345,353h1v1h-1V353z M349,351h-1v1h1V351z M345,358h1v1h-1V358z M353,360h-1v1
				h1V360z M356,361h1v1h-1V361z M346,362h-1v1h1V362z M351,365h1v1h-1V365z M357,366h-1v1h1V366z M345,366h1v1h-1V366z M349,361h-1
				v1h1V361z"/>
		</g>
		<g>
			<path class="st19" d="M358,343h15v1h2v14h1v11h-1h-17v-25V343z"/>
			<path class="st3" d="M367,342h-9v1h1v1h1v-1h2v1h1v-1h3v1h2v-1h4v1h2v1h1v7h-1v4h1v2h1v-2h-1v-3h1v-8v-1h-1v-1h-2v-1h-5v1h-1V342
				z M361,345h1v1h-1V345z M364,347h-1v1h1V347z M367,345h1v1h-1V345z M371,345h-1v1h1V345z M372,348h1v1h-1V348z M371,353h-1v1h1
				V353z M371,356h1v1h-1V356z M366,356h-1v1h1V356z M361,353h1v1h-1V353z M365,351h-1v1h1V351z M361,358h1v1h-1V358z M369,360h-1v1
				h1V360z M372,361h1v1h-1V361z M362,362h-1v1h1V362z M367,365h1v1h-1V365z M373,366h-1v1h1V366z M361,366h1v1h-1V366z M365,361h-1
				v1h1V361z"/>
		</g>
		<g>
			<path class="st19" d="M374,343h15v1h2v14h1v11h-1h-17v-25V343z"/>
			<path class="st3" d="M383,342h-9v1h1v1h1v-1h2v1h1v-1h3v1h2v-1h4v1h2v1h1v7h-1v4h1v2h1v-2h-1v-3h1v-8v-1h-1v-1h-2v-1h-5v1h-1V342
				z M377,345h1v1h-1V345z M380,347h-1v1h1V347z M383,345h1v1h-1V345z M387,345h-1v1h1V345z M388,348h1v1h-1V348z M387,353h-1v1h1
				V353z M387,356h1v1h-1V356z M382,356h-1v1h1V356z M377,353h1v1h-1V353z M381,351h-1v1h1V351z M377,358h1v1h-1V358z M385,360h-1v1
				h1V360z M388,361h1v1h-1V361z M378,362h-1v1h1V362z M383,365h1v1h-1V365z M389,366h-1v1h1V366z M377,366h1v1h-1V366z M381,361h-1
				v1h1V361z"/>
		</g>
		<g>
			<path class="st19" d="M390,343h15v1h2v14h1v11h-1h-17v-25V343z"/>
			<path class="st3" d="M399,342h-9v1h1v1h1v-1h2v1h1v-1h3v1h2v-1h4v1h2v1h1v7h-1v4h1v2h1v-2h-1v-3h1v-8v-1h-1v-1h-2v-1h-5v1h-1V342
				z M393,345h1v1h-1V345z M396,347h-1v1h1V347z M399,345h1v1h-1V345z M403,345h-1v1h1V345z M404,348h1v1h-1V348z M403,353h-1v1h1
				V353z M403,356h1v1h-1V356z M398,356h-1v1h1V356z M393,353h1v1h-1V353z M397,351h-1v1h1V351z M393,358h1v1h-1V358z M401,360h-1v1
				h1V360z M404,361h1v1h-1V361z M394,362h-1v1h1V362z M399,365h1v1h-1V365z M405,366h-1v1h1V366z M393,366h1v1h-1V366z M397,361h-1
				v1h1V361z"/>
		</g>
		<g>
			<path class="st19" d="M406,343h15v1h2v14h1v11h-1h-17v-25V343z"/>
			<path class="st3" d="M415,342h-9v1h1v1h1v-1h2v1h1v-1h3v1h2v-1h4v1h2v1h1v7h-1v4h1v2h1v-2h-1v-3h1v-8v-1h-1v-1h-2v-1h-5v1h-1V342
				z M409,345h1v1h-1V345z M412,347h-1v1h1V347z M415,345h1v1h-1V345z M419,345h-1v1h1V345z M420,348h1v1h-1V348z M419,353h-1v1h1
				V353z M419,356h1v1h-1V356z M414,356h-1v1h1V356z M409,353h1v1h-1V353z M413,351h-1v1h1V351z M409,358h1v1h-1V358z M417,360h-1v1
				h1V360z M420,361h1v1h-1V361z M410,362h-1v1h1V362z M415,365h1v1h-1V365z M421,366h-1v1h1V366z M409,366h1v1h-1V366z M413,361h-1
				v1h1V361z"/>
		</g>
		<g>
			<path class="st19" d="M422,343h15v1h2v14h1v11h-1h-17v-25V343z"/>
			<path class="st3" d="M431,342h-9v1h1v1h1v-1h2v1h1v-1h3v1h2v-1h4v1h2v1h1v7h-1v4h1v2h1v-2h-1v-3h1v-8v-1h-1v-1h-2v-1h-5v1h-1V342
				z M425,345h1v1h-1V345z M428,347h-1v1h1V347z M431,345h1v1h-1V345z M435,345h-1v1h1V345z M436,348h1v1h-1V348z M435,353h-1v1h1
				V353z M435,356h1v1h-1V356z M430,356h-1v1h1V356z M425,353h1v1h-1V353z M429,351h-1v1h1V351z M425,358h1v1h-1V358z M433,360h-1v1
				h1V360z M436,361h1v1h-1V361z M426,362h-1v1h1V362z M431,365h1v1h-1V365z M437,366h-1v1h1V366z M425,366h1v1h-1V366z M429,361h-1
				v1h1V361z"/>
		</g>
		<g>
			<path class="st19" d="M438,343h15v1h2v14h1v11h-1h-17v-25V343z"/>
			<path class="st3" d="M447,342h-9v1h1v1h1v-1h2v1h1v-1h3v1h2v-1h4v1h2v1h1v7h-1v4h1v2h1v-2h-1v-3h1v-8v-1h-1v-1h-2v-1h-5v1h-1V342
				z M441,345h1v1h-1V345z M444,347h-1v1h1V347z M447,345h1v1h-1V345z M451,345h-1v1h1V345z M452,348h1v1h-1V348z M451,353h-1v1h1
				V353z M451,356h1v1h-1V356z M446,356h-1v1h1V356z M441,353h1v1h-1V353z M445,351h-1v1h1V351z M441,358h1v1h-1V358z M449,360h-1v1
				h1V360z M452,361h1v1h-1V361z M442,362h-1v1h1V362z M447,365h1v1h-1V365z M453,366h-1v1h1V366z M441,366h1v1h-1V366z M445,361h-1
				v1h1V361z"/>
		</g>
		<g>
			<path class="st19" d="M454,343h15v1h2v14h1v11h-1h-17v-25V343z"/>
			<path class="st3" d="M463,342h-9v1h1v1h1v-1h2v1h1v-1h3v1h2v-1h4v1h2v1h1v7h-1v4h1v2h1v-2h-1v-3h1v-8v-1h-1v-1h-2v-1h-5v1h-1V342
				z M457,345h1v1h-1V345z M460,347h-1v1h1V347z M463,345h1v1h-1V345z M467,345h-1v1h1V345z M468,348h1v1h-1V348z M467,353h-1v1h1
				V353z M467,356h1v1h-1V356z M462,356h-1v1h1V356z M457,353h1v1h-1V353z M461,351h-1v1h1V351z M457,358h1v1h-1V358z M465,360h-1v1
				h1V360z M468,361h1v1h-1V361z M458,362h-1v1h1V362z M463,365h1v1h-1V365z M469,366h-1v1h1V366z M457,366h1v1h-1V366z M461,361h-1
				v1h1V361z"/>
		</g>
		<g>
			<path class="st19" d="M470,343h15v1h2v14h1v11h-1h-17v-25V343z"/>
			<path class="st3" d="M479,342h-9v1h1v1h1v-1h2v1h1v-1h3v1h2v-1h4v1h2v1h1v7h-1v4h1v2h1v-2h-1v-3h1v-8v-1h-1v-1h-2v-1h-5v1h-1V342
				z M473,345h1v1h-1V345z M476,347h-1v1h1V347z M479,345h1v1h-1V345z M483,345h-1v1h1V345z M484,348h1v1h-1V348z M483,353h-1v1h1
				V353z M483,356h1v1h-1V356z M478,356h-1v1h1V356z M473,353h1v1h-1V353z M477,351h-1v1h1V351z M473,358h1v1h-1V358z M481,360h-1v1
				h1V360z M484,361h1v1h-1V361z M474,362h-1v1h1V362z M479,365h1v1h-1V365z M485,366h-1v1h1V366z M473,366h1v1h-1V366z M477,361h-1
				v1h1V361z"/>
		</g>
		<g>
			<path class="st19" d="M485,343h15v1h2v14h1v11h-1h-17v-25V343z"/>
			<path class="st3" d="M494,342h-9v1h1v1h1v-1h2v1h1v-1h3v1h2v-1h4v1h2v1h1v7h-1v4h1v2h1v-2h-1v-3h1v-8v-1h-1v-1h-2v-1h-5v1h-1V342
				z M488,345h1v1h-1V345z M491,347h-1v1h1V347z M494,345h1v1h-1V345z M498,345h-1v1h1V345z M499,348h1v1h-1V348z M498,353h-1v1h1
				V353z M498,356h1v1h-1V356z M493,356h-1v1h1V356z M488,353h1v1h-1V353z M492,351h-1v1h1V351z M488,358h1v1h-1V358z M496,360h-1v1
				h1V360z M499,361h1v1h-1V361z M489,362h-1v1h1V362z M494,365h1v1h-1V365z M500,366h-1v1h1V366z M488,366h1v1h-1V366z M492,361h-1
				v1h1V361z"/>
		</g>
		<g>
			<path class="st19" d="M501,343h15v1h2v14h1v11h-1h-17v-25V343z"/>
			<path class="st3" d="M510,342h-9v1h1v1h1v-1h2v1h1v-1h3v1h2v-1h4v1h2v1h1v7h-1v4h1v2h1v-2h-1v-3h1v-8v-1h-1v-1h-2v-1h-5v1h-1V342
				z M504,345h1v1h-1V345z M507,347h-1v1h1V347z M510,345h1v1h-1V345z M514,345h-1v1h1V345z M515,348h1v1h-1V348z M514,353h-1v1h1
				V353z M514,356h1v1h-1V356z M509,356h-1v1h1V356z M504,353h1v1h-1V353z M508,351h-1v1h1V351z M504,358h1v1h-1V358z M512,360h-1v1
				h1V360z M515,361h1v1h-1V361z M505,362h-1v1h1V362z M510,365h1v1h-1V365z M516,366h-1v1h1V366z M504,366h1v1h-1V366z M508,361h-1
				v1h1V361z"/>
		</g>
		<g>
			<path class="st19" d="M517,343h15v1h2v14h1v11h-1h-17v-25V343z"/>
			<path class="st3" d="M526,342h-9v1h1v1h1v-1h2v1h1v-1h3v1h2v-1h4v1h2v1h1v7h-1v4h1v2h1v-2h-1v-3h1v-8v-1h-1v-1h-2v-1h-5v1h-1V342
				z M520,345h1v1h-1V345z M523,347h-1v1h1V347z M526,345h1v1h-1V345z M530,345h-1v1h1V345z M531,348h1v1h-1V348z M530,353h-1v1h1
				V353z M530,356h1v1h-1V356z M525,356h-1v1h1V356z M520,353h1v1h-1V353z M524,351h-1v1h1V351z M520,358h1v1h-1V358z M528,360h-1v1
				h1V360z M531,361h1v1h-1V361z M521,362h-1v1h1V362z M526,365h1v1h-1V365z M532,366h-1v1h1V366z M520,366h1v1h-1V366z M524,361h-1
				v1h1V361z"/>
		</g>
		<g>
			<path class="st19" d="M533,343h15v1h2v14h1v11h-1h-17v-25V343z"/>
			<path class="st3" d="M542,342h-9v1h1v1h1v-1h2v1h1v-1h3v1h2v-1h4v1h2v1h1v7h-1v4h1v2h1v-2h-1v-3h1v-8v-1h-1v-1h-2v-1h-5v1h-1V342
				z M536,345h1v1h-1V345z M539,347h-1v1h1V347z M542,345h1v1h-1V345z M546,345h-1v1h1V345z M547,348h1v1h-1V348z M546,353h-1v1h1
				V353z M546,356h1v1h-1V356z M541,356h-1v1h1V356z M536,353h1v1h-1V353z M540,351h-1v1h1V351z M536,358h1v1h-1V358z M544,360h-1v1
				h1V360z M547,361h1v1h-1V361z M537,362h-1v1h1V362z M542,365h1v1h-1V365z M548,366h-1v1h1V366z M536,366h1v1h-1V366z M540,361h-1
				v1h1V361z"/>
		</g>
		<g>
			<path class="st19" d="M549,343h15v1h2v14h1v11h-1h-17v-25V343z"/>
			<path class="st3" d="M558,342h-9v1h1v1h1v-1h2v1h1v-1h3v1h2v-1h4v1h2v1h1v7h-1v4h1v2h1v-2h-1v-3h1v-8v-1h-1v-1h-2v-1h-5v1h-1V342
				z M552,345h1v1h-1V345z M555,347h-1v1h1V347z M558,345h1v1h-1V345z M562,345h-1v1h1V345z M563,348h1v1h-1V348z M562,353h-1v1h1
				V353z M562,356h1v1h-1V356z M557,356h-1v1h1V356z M552,353h1v1h-1V353z M556,351h-1v1h1V351z M552,358h1v1h-1V358z M560,360h-1v1
				h1V360z M563,361h1v1h-1V361z M553,362h-1v1h1V362z M558,365h1v1h-1V365z M564,366h-1v1h1V366z M552,366h1v1h-1V366z M556,361h-1
				v1h1V361z"/>
		</g>
		<g>
			<path class="st19" d="M565,343h15v1h2v14h1v11h-1h-17v-25V343z"/>
			<path class="st3" d="M574,342h-9v1h1v1h1v-1h2v1h1v-1h3v1h2v-1h4v1h2v1h1v7h-1v4h1v2h1v-2h-1v-3h1v-8v-1h-1v-1h-2v-1h-5v1h-1V342
				z M568,345h1v1h-1V345z M571,347h-1v1h1V347z M574,345h1v1h-1V345z M578,345h-1v1h1V345z M579,348h1v1h-1V348z M578,353h-1v1h1
				V353z M578,356h1v1h-1V356z M573,356h-1v1h1V356z M568,353h1v1h-1V353z M572,351h-1v1h1V351z M568,358h1v1h-1V358z M576,360h-1v1
				h1V360z M579,361h1v1h-1V361z M569,362h-1v1h1V362z M574,365h1v1h-1V365z M580,366h-1v1h1V366z M568,366h1v1h-1V366z M572,361h-1
				v1h1V361z"/>
		</g>
		<g>
			<path class="st19" d="M581,343h15v1h2v14h1v11h-1h-17v-25V343z"/>
			<path class="st3" d="M590,342h-9v1h1v1h1v-1h2v1h1v-1h3v1h2v-1h4v1h2v1h1v7h-1v4h1v2h1v-2h-1v-3h1v-8v-1h-1v-1h-2v-1h-5v1h-1V342
				z M584,345h1v1h-1V345z M587,347h-1v1h1V347z M590,345h1v1h-1V345z M594,345h-1v1h1V345z M595,348h1v1h-1V348z M594,353h-1v1h1
				V353z M594,356h1v1h-1V356z M589,356h-1v1h1V356z M584,353h1v1h-1V353z M588,351h-1v1h1V351z M584,358h1v1h-1V358z M592,360h-1v1
				h1V360z M595,361h1v1h-1V361z M585,362h-1v1h1V362z M590,365h1v1h-1V365z M596,366h-1v1h1V366z M584,366h1v1h-1V366z M588,361h-1
				v1h1V361z"/>
		</g>
		<g>
			<path class="st19" d="M597,343h15v1h2v14h1v11h-1h-17v-25V343z"/>
			<path class="st3" d="M606,342h-9v1h1v1h1v-1h2v1h1v-1h3v1h2v-1h4v1h2v1h1v7h-1v4h1v2h1v-2h-1v-3h1v-8v-1h-1v-1h-2v-1h-5v1h-1V342
				z M600,345h1v1h-1V345z M603,347h-1v1h1V347z M606,345h1v1h-1V345z M610,345h-1v1h1V345z M611,348h1v1h-1V348z M610,353h-1v1h1
				V353z M610,356h1v1h-1V356z M605,356h-1v1h1V356z M600,353h1v1h-1V353z M604,351h-1v1h1V351z M600,358h1v1h-1V358z M608,360h-1v1
				h1V360z M611,361h1v1h-1V361z M601,362h-1v1h1V362z M606,365h1v1h-1V365z M612,366h-1v1h1V366z M600,366h1v1h-1V366z M604,361h-1
				v1h1V361z"/>
		</g>
		<g>
			<path class="st19" d="M613,343h15v1h2v14h1v11h-1h-17v-25V343z"/>
			<path class="st3" d="M622,342h-9v1h1v1h1v-1h2v1h1v-1h3v1h2v-1h4v1h2v1h1v7h-1v4h1v2h1v-2h-1v-3h1v-8v-1h-1v-1h-2v-1h-5v1h-1V342
				z M616,345h1v1h-1V345z M619,347h-1v1h1V347z M622,345h1v1h-1V345z M626,345h-1v1h1V345z M627,348h1v1h-1V348z M626,353h-1v1h1
				V353z M626,356h1v1h-1V356z M621,356h-1v1h1V356z M616,353h1v1h-1V353z M620,351h-1v1h1V351z M616,358h1v1h-1V358z M624,360h-1v1
				h1V360z M627,361h1v1h-1V361z M617,362h-1v1h1V362z M622,365h1v1h-1V365z M628,366h-1v1h1V366z M616,366h1v1h-1V366z M620,361h-1
				v1h1V361z"/>
		</g>
		<g>
			<path class="st19" d="M629,343h15v1h2v14h1v11h-1h-17v-25V343z"/>
			<path class="st3" d="M638,342h-9v1h1v1h1v-1h2v1h1v-1h3v1h2v-1h4v1h2v1h1v7h-1v4h1v2h1v-2h-1v-3h1v-8v-1h-1v-1h-2v-1h-5v1h-1V342
				z M632,345h1v1h-1V345z M635,347h-1v1h1V347z M638,345h1v1h-1V345z M642,345h-1v1h1V345z M643,348h1v1h-1V348z M642,353h-1v1h1
				V353z M642,356h1v1h-1V356z M637,356h-1v1h1V356z M632,353h1v1h-1V353z M636,351h-1v1h1V351z M632,358h1v1h-1V358z M640,360h-1v1
				h1V360z M643,361h1v1h-1V361z M633,362h-1v1h1V362z M638,365h1v1h-1V365z M644,366h-1v1h1V366z M632,366h1v1h-1V366z M636,361h-1
				v1h1V361z"/>
		</g>
		<g>
			<path class="st19" d="M645,343h15v1h2v14h1v11h-1h-17v-25V343z"/>
			<path class="st3" d="M654,342h-9v1h1v1h1v-1h2v1h1v-1h3v1h2v-1h4v1h2v1h1v7h-1v4h1v2h1v-2h-1v-3h1v-8v-1h-1v-1h-2v-1h-5v1h-1V342
				z M648,345h1v1h-1V345z M651,347h-1v1h1V347z M654,345h1v1h-1V345z M658,345h-1v1h1V345z M659,348h1v1h-1V348z M658,353h-1v1h1
				V353z M658,356h1v1h-1V356z M653,356h-1v1h1V356z M648,353h1v1h-1V353z M652,351h-1v1h1V351z M648,358h1v1h-1V358z M656,360h-1v1
				h1V360z M659,361h1v1h-1V361z M649,362h-1v1h1V362z M654,365h1v1h-1V365z M660,366h-1v1h1V366z M648,366h1v1h-1V366z M652,361h-1
				v1h1V361z"/>
		</g>
		<g>
			<path class="st19" d="M661,343h15v1h2v14h1v11h-1h-17v-25V343z"/>
			<path class="st3" d="M670,342h-9v1h1v1h1v-1h2v1h1v-1h3v1h2v-1h4v1h2v1h1v7h-1v4h1v2h1v-2h-1v-3h1v-8v-1h-1v-1h-2v-1h-5v1h-1V342
				z M664,345h1v1h-1V345z M667,347h-1v1h1V347z M670,345h1v1h-1V345z M674,345h-1v1h1V345z M675,348h1v1h-1V348z M674,353h-1v1h1
				V353z M674,356h1v1h-1V356z M669,356h-1v1h1V356z M664,353h1v1h-1V353z M668,351h-1v1h1V351z M664,358h1v1h-1V358z M672,360h-1v1
				h1V360z M675,361h1v1h-1V361z M665,362h-1v1h1V362z M670,365h1v1h-1V365z M676,366h-1v1h1V366z M664,366h1v1h-1V366z M668,361h-1
				v1h1V361z"/>
		</g>
		<g>
			<path class="st19" d="M677,343h15v1h2v14h1v11h-1h-17v-25V343z"/>
			<path class="st3" d="M686,342h-9v1h1v1h1v-1h2v1h1v-1h3v1h2v-1h4v1h2v1h1v7h-1v4h1v2h1v-2h-1v-3h1v-8v-1h-1v-1h-2v-1h-5v1h-1V342
				z M680,345h1v1h-1V345z M683,347h-1v1h1V347z M686,345h1v1h-1V345z M690,345h-1v1h1V345z M691,348h1v1h-1V348z M690,353h-1v1h1
				V353z M690,356h1v1h-1V356z M685,356h-1v1h1V356z M680,353h1v1h-1V353z M684,351h-1v1h1V351z M680,358h1v1h-1V358z M688,360h-1v1
				h1V360z M691,361h1v1h-1V361z M681,362h-1v1h1V362z M686,365h1v1h-1V365z M692,366h-1v1h1V366z M680,366h1v1h-1V366z M684,361h-1
				v1h1V361z"/>
		</g>
		<g>
			<path class="st19" d="M693,343h15v1h2v14h1v11h-1h-17v-25V343z"/>
			<path class="st3" d="M702,342h-9v1h1v1h1v-1h2v1h1v-1h3v1h2v-1h4v1h2v1h1v7h-1v4h1v2h1v-2h-1v-3h1v-8v-1h-1v-1h-2v-1h-5v1h-1V342
				z M696,345h1v1h-1V345z M699,347h-1v1h1V347z M702,345h1v1h-1V345z M706,345h-1v1h1V345z M707,348h1v1h-1V348z M706,353h-1v1h1
				V353z M706,356h1v1h-1V356z M701,356h-1v1h1V356z M696,353h1v1h-1V353z M700,351h-1v1h1V351z M696,358h1v1h-1V358z M704,360h-1v1
				h1V360z M707,361h1v1h-1V361z M697,362h-1v1h1V362z M702,365h1v1h-1V365z M708,366h-1v1h1V366z M696,366h1v1h-1V366z M700,361h-1
				v1h1V361z"/>
		</g>
		<g>
			<path class="st19" d="M709,343h15v1h2v14h1v11h-1h-17v-25V343z"/>
			<path class="st3" d="M718,342h-9v1h1v1h1v-1h2v1h1v-1h3v1h2v-1h4v1h2v1h1v7h-1v4h1v2h1v-2h-1v-3h1v-8v-1h-1v-1h-2v-1h-5v1h-1V342
				z M712,345h1v1h-1V345z M715,347h-1v1h1V347z M718,345h1v1h-1V345z M722,345h-1v1h1V345z M723,348h1v1h-1V348z M722,353h-1v1h1
				V353z M722,356h1v1h-1V356z M717,356h-1v1h1V356z M712,353h1v1h-1V353z M716,351h-1v1h1V351z M712,358h1v1h-1V358z M720,360h-1v1
				h1V360z M723,361h1v1h-1V361z M713,362h-1v1h1V362z M718,365h1v1h-1V365z M724,366h-1v1h1V366z M712,366h1v1h-1V366z M716,361h-1
				v1h1V361z"/>
		</g>
		<g>
			<path class="st19" d="M725,343h15v1h2v14h1v11h-1h-17v-25V343z"/>
			<path class="st3" d="M734,342h-9v1h1v1h1v-1h2v1h1v-1h3v1h2v-1h4v1h2v1h1v7h-1v4h1v2h1v-2h-1v-3h1v-8v-1h-1v-1h-2v-1h-5v1h-1V342
				z M728,345h1v1h-1V345z M731,347h-1v1h1V347z M734,345h1v1h-1V345z M738,345h-1v1h1V345z M739,348h1v1h-1V348z M738,353h-1v1h1
				V353z M738,356h1v1h-1V356z M733,356h-1v1h1V356z M728,353h1v1h-1V353z M732,351h-1v1h1V351z M728,358h1v1h-1V358z M736,360h-1v1
				h1V360z M739,361h1v1h-1V361z M729,362h-1v1h1V362z M734,365h1v1h-1V365z M740,366h-1v1h1V366z M728,366h1v1h-1V366z M732,361h-1
				v1h1V361z"/>
		</g>
	</g>
</g>
</svg>
